<svg xmlns="http://www.w3.org/2000/svg" width="2341.166" height="776.756" viewBox="0 0 2341.166 776.756"><g transform="translate(-73.679 -483.157)"><g transform="translate(-233 118)"><g transform="translate(933 -902)"><path d="M620.324,1496.79v322.634H563.59V1496.79H477.148v-53.326H706.522v53.326Z" fill="#005798"/><path d="M738.421,1483.641a35.756,35.756,0,0,1,35.551-35.307,34.509,34.509,0,0,1,25.323,10.471,33.713,33.713,0,0,1,10.471,25.08,34.5,34.5,0,0,1-10.471,25.323,33.7,33.7,0,0,1-25.08,10.471,35.752,35.752,0,0,1-35.794-36.038Zm63.065,98.617v237.166H746.7V1582.258Z" fill="#005798"/><path d="M1055.454,1592.484v72.806q-18.753-22.886-33.6-31.411-14.611-8.766-34.333-8.766-30.927,0-51.378,21.671t-20.455,54.3q0,33.363,19.724,54.787Q955.374,1777.3,986.3,1777.3q19.723,0,34.82-8.523,14.61-8.274,34.333-32.141v72.318q-33.363,17.288-66.718,17.289-55.032,0-92.042-35.551-37.015-35.795-37.011-88.876t37.5-89.607q37.5-36.526,92.042-36.525A137.539,137.539,0,0,1,1055.454,1592.484Z" fill="#005798"/><path d="M1163.323,1408.157v250.8l77.189-76.7h73.536l-103,99.59L1321.6,1819.424h-71.1l-78.405-100.077-8.767,8.765v91.312h-54.787V1408.157Z" fill="#005798"/><path d="M1411.69,1408.157v411.267H1356.9V1408.157Z" fill="#005798"/><path d="M1555.841,1775.351,1449.19,1582.258h63.552l72.563,136.358L1653,1582.258h61.849l-188.954,366.22h-62.578Z" fill="#005798"/></g><path d="M1434.483,349.979,920.434,53.184c-70.684-40.8-128.511-7.414-128.511,74.19V267.041h442.983V404.349H1054.958V717.478l379.525-219.125C1505.166,457.553,1505.161,390.784,1434.483,349.979Z" transform="translate(-144.495 329.384)" fill="#0081c0"/><path d="M647.428,560.644H306.679c125.125,0,340.749,101.436,340.749,226.561v90.047c0,80.546,56.322,114.075,125.744,75.706V560.644Z" transform="translate(0 173.089)" fill="#005798"/></g></g></svg>