<svg xmlns="http://www.w3.org/2000/svg" xmlns:xlink="http://www.w3.org/1999/xlink" width="450" height="450" viewBox="0 0 450 450">
  <defs>
    <clipPath id="clip-path">
      <ellipse id="楕円形_15" data-name="楕円形 15" cx="30" cy="29.5" rx="30" ry="29.5" transform="translate(-0.383 0.274)" fill="#d22" stroke="#707070" stroke-width="1"/>
    </clipPath>
    <clipPath id="clip-path-2">
      <ellipse id="楕円形_15-2" data-name="楕円形 15" cx="34.5" cy="34" rx="34.5" ry="34" transform="translate(-0.428 0.358)" fill="#d22" stroke="#707070" stroke-width="1"/>
    </clipPath>
    <clipPath id="clip-path-3">
      <ellipse id="楕円形_15-3" data-name="楕円形 15" cx="34.5" cy="34" rx="34.5" ry="34" transform="translate(0.108 0.358)" fill="#d22" stroke="#707070" stroke-width="1"/>
    </clipPath>
    <clipPath id="clip-path-4">
      <circle id="楕円形_15-4" data-name="楕円形 15" cx="34.5" cy="34.5" r="34.5" transform="translate(0.108 0.015)" fill="#d22" stroke="#707070" stroke-width="1"/>
    </clipPath>
    <clipPath id="clip-path-5">
      <circle id="楕円形_15-5" data-name="楕円形 15" cx="34.5" cy="34.5" r="34.5" transform="translate(-0.428 0.015)" fill="#d22" stroke="#707070" stroke-width="1"/>
    </clipPath>
  </defs>
  <g id="グループ_19" data-name="グループ 19" transform="translate(-967 -3354)">
    <g id="長方形_86" data-name="長方形 86" transform="translate(967 3354)" fill="#fff" stroke="#007fbd" stroke-width="7">
      <rect width="450" height="450" stroke="none"/>
      <rect x="3.5" y="3.5" width="443" height="443" fill="none"/>
    </g>
    <g id="グループ_18" data-name="グループ 18" transform="translate(77 624)">
      <g id="長方形_87" data-name="長方形 87" transform="translate(1017 2853)" fill="#fff" stroke="#007fbd" stroke-width="4">
        <rect width="196" height="203" stroke="none"/>
        <rect x="2" y="2" width="192" height="199" fill="none"/>
      </g>
      <rect id="長方形_88" data-name="長方形 88" width="82" height="9" transform="translate(1115 2887)" fill="#007fbd"/>
      <rect id="長方形_89" data-name="長方形 89" width="82" height="10" transform="translate(1115 2916)" fill="#007fbd"/>
      <g id="グループ_13" data-name="グループ 13" transform="translate(1032.167 2875.226)">
        <g id="パス_11" data-name="パス 11" fill="#fff">
          <path d="M 34.28420257568359 67.06840515136719 C 29.85770225524902 67.06840515136719 25.56440162658691 66.20180511474609 21.52357292175293 64.49267578125 C 17.61983299255371 62.84153366088867 14.11360263824463 60.47746276855469 11.10227298736572 57.46613311767578 C 8.0909423828125 54.45480346679688 5.726872444152832 50.94857406616211 4.075732707977295 47.04483413696289 C 2.366602659225464 43.00400161743164 1.50000262260437 38.71070098876953 1.50000262260437 34.28420257568359 C 1.50000262260437 28.66722297668457 2.888132572174072 23.30606269836426 5.6258225440979 18.34966278076172 C 8.386902809143066 13.35024261474609 12.45446300506592 9.139922142028809 17.38881301879883 6.173812389373779 C 22.47540283203125 3.116182565689087 28.3177433013916 1.50000262260437 34.28420257568359 1.50000262260437 C 38.71070098876953 1.50000262260437 43.00400161743164 2.366602659225464 47.04483413696289 4.075732707977295 C 50.94857406616211 5.726872444152832 54.45480346679688 8.0909423828125 57.46613311767578 11.10227298736572 C 60.47746276855469 14.11360263824463 62.84153366088867 17.61983299255371 64.49267578125 21.52357292175293 C 66.20180511474609 25.56440162658691 67.06840515136719 29.85770225524902 67.06840515136719 34.28420257568359 C 67.06840515136719 38.71070098876953 66.20180511474609 43.00400161743164 64.49267578125 47.04483413696289 C 62.84153366088867 50.94857406616211 60.47746276855469 54.45480346679688 57.46613311767578 57.46613311767578 C 54.45480346679688 60.47746276855469 50.94857406616211 62.84153366088867 47.04483413696289 64.49267578125 C 43.00400161743164 66.20180511474609 38.71070098876953 67.06840515136719 34.28420257568359 67.06840515136719 Z" stroke="none"/>
          <path d="M 34.28420257568359 3 C 28.5899772644043 3 23.01487350463867 4.54205322265625 18.16160202026367 7.459426879882812 C 13.45323944091797 10.28969573974609 9.572498321533203 14.30621337890625 6.938838958740234 19.07492065429688 C 4.325210571289062 23.80668640136719 3 28.92382431030273 3 34.28420257568359 C 3 38.50886154174805 3.826728820800781 42.60556793212891 5.457237243652344 46.46051025390625 C 7.032756805419922 50.18544769287109 9.288871765136719 53.53142547607422 12.16293334960938 56.40547180175781 C 15.03697967529297 59.27953338623047 18.38295364379883 61.53564834594727 22.10789489746094 63.11116790771484 C 25.96283721923828 64.74167633056641 30.05954360961914 65.56840515136719 34.28420257568359 65.56840515136719 C 38.50886154174805 65.56840515136719 42.60556793212891 64.74167633056641 46.46051025390625 63.11116790771484 C 50.18544769287109 61.53564834594727 53.53142547607422 59.27953338623047 56.40547180175781 56.40547180175781 C 59.27953338623047 53.53142547607422 61.53564834594727 50.18544769287109 63.11116790771484 46.46051025390625 C 64.74167633056641 42.60556793212891 65.56840515136719 38.50886154174805 65.56840515136719 34.28420257568359 C 65.56840515136719 30.05954360961914 64.74167633056641 25.96283721923828 63.11116790771484 22.10789489746094 C 61.53564834594727 18.38295364379883 59.27953338623047 15.03697967529297 56.40547180175781 12.16293334960938 C 53.53142547607422 9.288871765136719 50.18544769287109 7.032756805419922 46.46051025390625 5.457237243652344 C 42.60556793212891 3.826728820800781 38.50886154174805 3 34.28420257568359 3 M 34.28420257568359 0 C 53.21884918212891 0 68.56840515136719 15.34955596923828 68.56840515136719 34.28420257568359 C 68.56840515136719 53.21884918212891 53.21884918212891 68.56840515136719 34.28420257568359 68.56840515136719 C 15.34955596923828 68.56840515136719 0 53.21884918212891 0 34.28420257568359 C 0 28.28193283081055 1.542465209960938 22.63991928100586 4.31280517578125 17.62441253662109 C 10.09186172485352 7.160415649414062 21.35182571411133 0 34.28420257568359 0 Z" stroke="none" fill="#007fbd"/>
        </g>
        <g id="マスクグループ_1" data-name="マスクグループ 1" transform="translate(4.216 6.5)" clip-path="url(#clip-path)">
          <g id="パス_10" data-name="パス 10" transform="translate(7.882 32.386)" fill="#007fbd">
            <path d="M 21.78951644897461 53.77569961547852 C 18.92999649047852 53.77569961547852 16.15481567382812 53.07756805419922 13.54108619689941 51.70069885253906 C 11.00735664367676 50.36597061157227 8.729856491088867 48.45275115966797 6.771876335144043 46.0141716003418 C 4.807396411895752 43.56750106811523 3.264406442642212 40.71649169921875 2.185766458511353 37.54034042358398 C 1.067176461219788 34.24654006958008 0.4999964535236359 30.74663925170898 0.4999964535236359 27.13784980773926 C 0.4999964535236359 23.52906036376953 1.067176461219788 20.02915954589844 2.185766458511353 16.73535919189453 C 3.264406442642212 13.5592098236084 4.807396411895752 10.7081995010376 6.771876335144043 8.261529922485352 C 8.729856491088867 5.822949886322021 11.00735664367676 3.909729719161987 13.54108619689941 2.574999809265137 C 16.15481567382812 1.198129773139954 18.92999649047852 0.4999998211860657 21.78951644897461 0.4999998211860657 C 24.6490364074707 0.4999998211860657 27.4242057800293 1.198129773139954 30.0379467010498 2.574999809265137 C 32.57167816162109 3.909729719161987 34.84916687011719 5.822949886322021 36.80715560913086 8.261529922485352 C 38.77162551879883 10.7081995010376 40.31461715698242 13.5592098236084 41.39326477050781 16.73535919189453 C 42.51185607910156 20.02915954589844 43.07903671264648 23.52906036376953 43.07903671264648 27.13784980773926 C 43.07903671264648 30.74663925170898 42.51185607910156 34.24654006958008 41.39326477050781 37.54034042358398 C 40.31461715698242 40.71649169921875 38.77162551879883 43.56750106811523 36.80715560913086 46.0141716003418 C 34.84916687011719 48.45275115966797 32.57167816162109 50.36597061157227 30.0379467010498 51.70069885253906 C 27.4242057800293 53.07756805419922 24.6490364074707 53.77569961547852 21.78951644897461 53.77569961547852 Z" stroke="none"/>
            <path d="M 21.78951644897461 1 C 10.32613754272461 1 0.9999961853027344 12.72539138793945 0.9999961853027344 27.13784980773926 C 0.9999961853027344 41.55030822753906 10.32613754272461 53.27569961547852 21.78951644897461 53.27569961547852 C 33.25289535522461 53.27569961547852 42.57903671264648 41.55030822753906 42.57903671264648 27.13784980773926 C 42.57903671264648 12.72539138793945 33.25289535522461 1 21.78951644897461 1 M 21.78951644897461 0 C 33.82352447509766 0 43.57903671264648 12.15002822875977 43.57903671264648 27.13784980773926 C 43.57903671264648 42.12567138671875 33.82352447509766 54.27569961547852 21.78951644897461 54.27569961547852 C 9.755496978759766 54.27569961547852 -3.814697265625e-06 42.12567138671875 -3.814697265625e-06 27.13784980773926 C -3.814697265625e-06 12.15002822875977 9.755496978759766 0 21.78951644897461 0 Z" stroke="none" fill="#707070"/>
          </g>
          <g id="パス_9" data-name="パス 9" transform="translate(15.806 1.088)" fill="#007fbd">
            <path d="M 13.86605453491211 27.23211479187012 C 10.29585456848145 27.23211479187012 6.93934440612793 25.84180450439453 4.414824485778809 23.31728363037109 C 1.89031457901001 20.79276466369629 0.5000045299530029 17.43625450134277 0.5000045299530029 13.86605453491211 C 0.5000045299530029 10.29585456848145 1.89031457901001 6.93934440612793 4.414824485778809 4.414824485778809 C 6.93934440612793 1.89031457901001 10.29585456848145 0.5000045299530029 13.86605453491211 0.5000045299530029 C 17.43625450134277 0.5000045299530029 20.79276466369629 1.89031457901001 23.31728363037109 4.414824485778809 C 25.84180450439453 6.93934440612793 27.23211479187012 10.29585456848145 27.23211479187012 13.86605453491211 C 27.23211479187012 17.43625450134277 25.84180450439453 20.79276466369629 23.31728363037109 23.31728363037109 C 20.79276466369629 25.84180450439453 17.43625450134277 27.23211479187012 13.86605453491211 27.23211479187012 Z" stroke="none"/>
            <path d="M 13.86605453491211 0.9999942779541016 C 10.42940521240234 0.9999942779541016 7.198453903198242 2.338294982910156 4.768375396728516 4.768375396728516 C 2.338294982910156 7.198453903198242 0.9999942779541016 10.42940521240234 0.9999942779541016 13.86605453491211 C 0.9999942779541016 17.30270385742188 2.338294982910156 20.53365516662598 4.768375396728516 22.96372413635254 C 7.198453903198242 25.3938045501709 10.42940521240234 26.73210525512695 13.86605453491211 26.73210525512695 C 17.30270385742188 26.73210525512695 20.53365516662598 25.3938045501709 22.96372413635254 22.96372413635254 C 25.3938045501709 20.53365516662598 26.73210525512695 17.30270385742188 26.73210525512695 13.86605453491211 C 26.73210525512695 10.42940521240234 25.3938045501709 7.198453903198242 22.96372413635254 4.768375396728516 C 20.53365516662598 2.338294982910156 17.30270385742188 0.9999942779541016 13.86605453491211 0.9999942779541016 M 13.86605453491211 -5.7220458984375e-06 C 21.5240650177002 -5.7220458984375e-06 27.73210525512695 6.208044052124023 27.73210525512695 13.86605453491211 C 27.73210525512695 21.5240650177002 21.5240650177002 27.73210525512695 13.86605453491211 27.73210525512695 C 6.208044052124023 27.73210525512695 -5.7220458984375e-06 21.5240650177002 -5.7220458984375e-06 13.86605453491211 C -5.7220458984375e-06 6.208044052124023 6.208044052124023 -5.7220458984375e-06 13.86605453491211 -5.7220458984375e-06 Z" stroke="none" fill="#707070"/>
          </g>
        </g>
      </g>
      <g id="グループ_14" data-name="グループ 14" transform="translate(922 2819)">
        <g id="パス_11-2" data-name="パス 11" transform="translate(0 0)" fill="#fff">
          <path d="M 38.85543060302734 76.21086120605469 C 33.81182098388672 76.21086120605469 28.91987419128418 75.22339630126953 24.31547546386719 73.27590942382812 C 19.86739730834961 71.39451599121094 15.8722972869873 68.70085144042969 12.44115257263184 65.26970672607422 C 9.010008811950684 61.83856582641602 6.316341876983643 57.84346389770508 4.434952735900879 53.3953857421875 C 2.48746395111084 48.79098510742188 1.49999725818634 43.89904022216797 1.49999725818634 38.85543060302734 C 1.49999725818634 35.64231872558594 1.90957510471344 32.45312118530273 2.717352867126465 29.37641906738281 C 3.504352807998657 26.37886428833008 4.676374912261963 23.45955276489258 6.200852870941162 20.69958686828613 C 9.347075462341309 15.00280857086182 13.98189735412598 10.20527458190918 19.60427474975586 6.82557487487793 C 25.40020751953125 3.341552734375 32.0571403503418 1.49999725818634 38.85543060302734 1.49999725818634 C 43.89904022216797 1.49999725818634 48.79098510742188 2.48746395111084 53.3953857421875 4.434952735900879 C 57.84346389770508 6.316341876983643 61.83856582641602 9.010008811950684 65.26970672607422 12.44115257263184 C 68.70085144042969 15.8722972869873 71.39451599121094 19.86739730834961 73.27590942382812 24.31547546386719 C 75.22339630126953 28.91987419128418 76.21086120605469 33.81182098388672 76.21086120605469 38.85543060302734 C 76.21086120605469 43.89904022216797 75.22339630126953 48.79098510742188 73.27590942382812 53.3953857421875 C 71.39451599121094 57.84346389770508 68.70085144042969 61.83856582641602 65.26970672607422 65.26970672607422 C 61.83856582641602 68.70085144042969 57.84346389770508 71.39451599121094 53.3953857421875 73.27590942382812 C 48.79098510742188 75.22339630126953 43.89904022216797 76.21086120605469 38.85543060302734 76.21086120605469 Z" stroke="none"/>
          <path d="M 38.85543060302734 2.999992370605469 C 32.32938003540039 2.999992370605469 25.93966674804688 4.767402648925781 20.37707901000977 8.111167907714844 C 14.98065567016602 11.35504150390625 10.53266906738281 15.95878219604492 7.513877868652344 21.42483139038086 C 4.518684387207031 26.84741973876953 2.999992370605469 32.71191787719727 2.999992370605469 38.85543060302734 C 2.999992370605469 43.69720458984375 3.947593688964844 48.39255523681641 5.816452026367188 52.81105804443359 C 7.622215270996094 57.08032989501953 10.20794677734375 60.91516876220703 13.50180816650391 64.20904541015625 C 16.79568099975586 67.50290679931641 20.63051986694336 70.08863067626953 24.8997917175293 71.89439392089844 C 29.31830596923828 73.76325225830078 34.01365661621094 74.71085357666016 38.85543060302734 74.71085357666016 C 43.69720458984375 74.71085357666016 48.39255523681641 73.76325225830078 52.81105804443359 71.89439392089844 C 57.08032989501953 70.08863067626953 60.91516876220703 67.50290679931641 64.20904541015625 64.20904541015625 C 67.50290679931641 60.91516876220703 70.08863067626953 57.08032989501953 71.89439392089844 52.81105804443359 C 73.76325225830078 48.39255523681641 74.71085357666016 43.69720458984375 74.71085357666016 38.85543060302734 C 74.71085357666016 34.01365661621094 73.76325225830078 29.31830596923828 71.89439392089844 24.8997917175293 C 70.08863067626953 20.63051986694336 67.50290679931641 16.79568099975586 64.20904541015625 13.50180816650391 C 60.91516876220703 10.20794677734375 57.08032989501953 7.622215270996094 52.81105804443359 5.816452026367188 C 48.39255523681641 3.947593688964844 43.69720458984375 2.999992370605469 38.85543060302734 2.999992370605469 M 38.85543060302734 -7.62939453125e-06 C 60.31468200683594 -7.62939453125e-06 77.71085357666016 17.39616775512695 77.71085357666016 38.85543060302734 C 77.71085357666016 60.31468200683594 60.31468200683594 77.71085357666016 38.85543060302734 77.71085357666016 C 17.39616775512695 77.71085357666016 -7.62939453125e-06 60.31468200683594 -7.62939453125e-06 38.85543060302734 C -7.62939453125e-06 32.0528564453125 1.748115539550781 25.6585807800293 4.887840270996094 19.97433090209961 C 11.43744659423828 8.115127563476562 24.1987419128418 -7.62939453125e-06 38.85543060302734 -7.62939453125e-06 Z" stroke="none" fill="#007fbd"/>
        </g>
        <g id="マスクグループ_1-2" data-name="マスクグループ 1" transform="translate(4.428 6.642)" clip-path="url(#clip-path-2)">
          <g id="パス_10-2" data-name="パス 10" transform="translate(8.829 37.242)" fill="#007fbd">
            <path d="M 25.14174842834473 62.12581253051758 C 21.82967758178711 62.12581253051758 18.61549758911133 61.31729507446289 15.58847808837891 59.72271347045898 C 12.65556812286377 58.17770385742188 10.0195779800415 55.96344375610352 7.75372838973999 53.14143371582031 C 5.481388568878174 50.31133270263672 3.696688413619995 47.01383590698242 2.449208498001099 43.34051513671875 C 1.155808448791504 39.5319938659668 0.4999984204769135 35.48532485961914 0.4999984204769135 31.31290435791016 C 0.4999984204769135 27.14048385620117 1.155808448791504 23.09381484985352 2.449208498001099 19.28529357910156 C 3.696688413619995 15.61198425292969 5.481388568878174 12.31447410583496 7.75372838973999 9.484384536743164 C 10.0195779800415 6.662374496459961 12.65556812286377 4.448114395141602 15.58847808837891 2.903104305267334 C 18.61549758911133 1.308524370193481 21.82967758178711 0.5000043511390686 25.14174842834473 0.5000043511390686 C 28.45381927490234 0.5000043511390686 31.66799926757812 1.308524370193481 34.69501876831055 2.903104305267334 C 37.6279296875 4.448114395141602 40.26391983032227 6.662374496459961 42.52976989746094 9.484384536743164 C 44.80210876464844 12.31447410583496 46.58680725097656 15.61198425292969 47.83428955078125 19.28529357910156 C 49.12768936157227 23.09381484985352 49.78349685668945 27.14048385620117 49.78349685668945 31.31290435791016 C 49.78349685668945 35.48532485961914 49.12768936157227 39.5319938659668 47.83428955078125 43.34051513671875 C 46.58680725097656 47.01383590698242 44.80210876464844 50.31133270263672 42.52976989746094 53.14143371582031 C 40.26391983032227 55.96344375610352 37.6279296875 58.17770385742188 34.69501876831055 59.72271347045898 C 31.66799926757812 61.31729507446289 28.45381927490234 62.12581253051758 25.14174842834473 62.12581253051758 Z" stroke="none"/>
            <path d="M 25.14174842834473 0.9999961853027344 C 21.91171836853027 0.9999961853027344 18.77593803405762 1.78912353515625 15.82151031494141 3.345462799072266 C 12.94953918457031 4.858375549316406 10.36631774902344 7.029125213623047 8.143596649169922 9.797412872314453 C 5.90789794921875 12.58188247680664 4.151309967041016 15.82816314697266 2.922649383544922 19.44607543945312 C 1.646869659423828 23.20271301269531 1 27.19528579711914 1 31.31290435791016 C 1 35.43052673339844 1.646869659423828 39.423095703125 2.922649383544922 43.17973327636719 C 4.151309967041016 46.79764556884766 5.90789794921875 50.04391479492188 8.143596649169922 52.82838439941406 C 10.36631774902344 55.59668350219727 12.94953918457031 57.76743316650391 15.82151031494141 59.28033447265625 C 18.77593803405762 60.83667373657227 21.91171836853027 61.62580490112305 25.14174842834473 61.62580490112305 C 28.37177848815918 61.62580490112305 31.50755882263184 60.83667373657227 34.46197891235352 59.28033447265625 C 37.33394622802734 57.76743316650391 39.91716766357422 55.59668350219727 42.13988876342773 52.82838439941406 C 44.3755989074707 50.04391479492188 46.13217926025391 46.79763412475586 47.36084747314453 43.17973327636719 C 48.63662719726562 39.423095703125 49.28349685668945 35.43052673339844 49.28349685668945 31.31290435791016 C 49.28349685668945 27.19528579711914 48.63662719726562 23.20271301269531 47.36084747314453 19.44607543945312 C 46.13217926025391 15.82816314697266 44.3755989074707 12.58188247680664 42.13988876342773 9.797412872314453 C 39.91716766357422 7.029125213623047 37.33394622802734 4.858375549316406 34.46197891235352 3.345462799072266 C 31.50755882263184 1.78912353515625 28.37177848815918 0.9999961853027344 25.14174842834473 0.9999961853027344 M 25.14174842834473 -3.814697265625e-06 C 39.02714920043945 -3.814697265625e-06 50.28349685668945 14.01926422119141 50.28349685668945 31.31290435791016 C 50.28349685668945 48.60654449462891 39.02714920043945 62.62580490112305 25.14174842834473 62.62580490112305 C 11.25634002685547 62.62580490112305 0 48.60654449462891 0 31.31290435791016 C 0 14.01926422119141 11.25634002685547 -3.814697265625e-06 25.14174842834473 -3.814697265625e-06 Z" stroke="none" fill="#707070"/>
          </g>
          <g id="パス_9-2" data-name="パス 9" transform="translate(17.971 1.13)" fill="#007fbd">
            <path d="M 15.99929332733154 31.49858283996582 C 11.85928344726562 31.49858283996582 7.967073440551758 29.88637351989746 5.039643287658691 26.95894241333008 C 2.112213373184204 24.03151321411133 0.5000033378601074 20.13930320739746 0.5000033378601074 15.99929332733154 C 0.5000033378601074 11.85928344726562 2.112213373184204 7.967073440551758 5.039643287658691 5.039643287658691 C 7.967073440551758 2.112213373184204 11.85928344726562 0.5000033378601074 15.99929332733154 0.5000033378601074 C 20.13930320739746 0.5000033378601074 24.03151321411133 2.112213373184204 26.95894241333008 5.039643287658691 C 29.88637351989746 7.967073440551758 31.49858283996582 11.85928344726562 31.49858283996582 15.99929332733154 C 31.49858283996582 20.13930320739746 29.88637351989746 24.03151321411133 26.95894241333008 26.95894241333008 C 24.03151321411133 29.88637351989746 20.13930320739746 31.49858283996582 15.99929332733154 31.49858283996582 Z" stroke="none"/>
            <path d="M 15.99929332733154 1.000003814697266 C 11.99283409118652 1.000003814697266 8.22618293762207 2.560203552246094 5.393194198608398 5.393194198608398 C 2.560203552246094 8.22618293762207 1.000003814697266 11.99283409118652 1.000003814697266 15.99929332733154 C 1.000003814697266 20.0057430267334 2.560203552246094 23.77240371704102 5.393194198608398 26.60539245605469 C 8.22618293762207 29.43838310241699 11.99283409118652 30.99858283996582 15.99929332733154 30.99858283996582 C 20.0057430267334 30.99858283996582 23.77240371704102 29.43838310241699 26.60539245605469 26.60539245605469 C 29.43838310241699 23.77240371704102 30.99858283996582 20.0057430267334 30.99858283996582 15.99929332733154 C 30.99858283996582 11.99283409118652 29.43838310241699 8.22618293762207 26.60539245605469 5.393194198608398 C 23.77240371704102 2.560203552246094 20.0057430267334 1.000003814697266 15.99929332733154 1.000003814697266 M 15.99929332733154 3.814697265625e-06 C 24.83545303344727 3.814697265625e-06 31.99858283996582 7.163124084472656 31.99858283996582 15.99929332733154 C 31.99858283996582 24.83545303344727 24.83545303344727 31.99858283996582 15.99929332733154 31.99858283996582 C 7.163124084472656 31.99858283996582 3.814697265625e-06 24.83545303344727 3.814697265625e-06 15.99929332733154 C 3.814697265625e-06 7.163124084472656 7.163124084472656 3.814697265625e-06 15.99929332733154 3.814697265625e-06 Z" stroke="none" fill="#707070"/>
          </g>
        </g>
      </g>
      <g id="グループ_15" data-name="グループ 15" transform="translate(1230.558 2819)">
        <g id="パス_11-3" data-name="パス 11" transform="translate(0 0)" fill="#fff">
          <path d="M 38.85543060302734 76.21086120605469 C 33.81182098388672 76.21086120605469 28.91987419128418 75.22339630126953 24.31547546386719 73.27590942382812 C 19.86739730834961 71.39451599121094 15.8722972869873 68.70085144042969 12.44115257263184 65.26970672607422 C 9.010008811950684 61.83856582641602 6.316341876983643 57.84346389770508 4.434952735900879 53.3953857421875 C 2.48746395111084 48.79098510742188 1.49999725818634 43.89904022216797 1.49999725818634 38.85543060302734 C 1.49999725818634 35.64231872558594 1.90957510471344 32.45312118530273 2.717352867126465 29.37641906738281 C 3.504352807998657 26.37886428833008 4.676374912261963 23.45955276489258 6.200852870941162 20.69958686828613 C 9.347075462341309 15.00280857086182 13.98189735412598 10.20527458190918 19.60427474975586 6.82557487487793 C 25.40020751953125 3.341552734375 32.0571403503418 1.49999725818634 38.85543060302734 1.49999725818634 C 43.89904022216797 1.49999725818634 48.79098510742188 2.48746395111084 53.3953857421875 4.434952735900879 C 57.84346389770508 6.316341876983643 61.83856582641602 9.010008811950684 65.26970672607422 12.44115257263184 C 68.70085144042969 15.8722972869873 71.39451599121094 19.86739730834961 73.27590942382812 24.31547546386719 C 75.22339630126953 28.91987419128418 76.21086120605469 33.81182098388672 76.21086120605469 38.85543060302734 C 76.21086120605469 43.89904022216797 75.22339630126953 48.79098510742188 73.27590942382812 53.3953857421875 C 71.39451599121094 57.84346389770508 68.70085144042969 61.83856582641602 65.26970672607422 65.26970672607422 C 61.83856582641602 68.70085144042969 57.84346389770508 71.39451599121094 53.3953857421875 73.27590942382812 C 48.79098510742188 75.22339630126953 43.89904022216797 76.21086120605469 38.85543060302734 76.21086120605469 Z" stroke="none"/>
          <path d="M 38.85543060302734 2.999992370605469 C 32.32938003540039 2.999992370605469 25.93966674804688 4.767402648925781 20.37707901000977 8.111167907714844 C 14.98065567016602 11.35504150390625 10.53266906738281 15.95878219604492 7.513877868652344 21.42483139038086 C 4.518684387207031 26.84741973876953 2.999992370605469 32.71191787719727 2.999992370605469 38.85543060302734 C 2.999992370605469 43.69720458984375 3.947593688964844 48.39255523681641 5.816452026367188 52.81105804443359 C 7.622215270996094 57.08032989501953 10.20794677734375 60.91516876220703 13.50180816650391 64.20904541015625 C 16.79568099975586 67.50290679931641 20.63051986694336 70.08863067626953 24.8997917175293 71.89439392089844 C 29.31830596923828 73.76325225830078 34.01365661621094 74.71085357666016 38.85543060302734 74.71085357666016 C 43.69720458984375 74.71085357666016 48.39255523681641 73.76325225830078 52.81105804443359 71.89439392089844 C 57.08032989501953 70.08863067626953 60.91516876220703 67.50290679931641 64.20904541015625 64.20904541015625 C 67.50290679931641 60.91516876220703 70.08863067626953 57.08032989501953 71.89439392089844 52.81105804443359 C 73.76325225830078 48.39255523681641 74.71085357666016 43.69720458984375 74.71085357666016 38.85543060302734 C 74.71085357666016 34.01365661621094 73.76325225830078 29.31830596923828 71.89439392089844 24.8997917175293 C 70.08863067626953 20.63051986694336 67.50290679931641 16.79568099975586 64.20904541015625 13.50180816650391 C 60.91516876220703 10.20794677734375 57.08032989501953 7.622215270996094 52.81105804443359 5.816452026367188 C 48.39255523681641 3.947593688964844 43.69720458984375 2.999992370605469 38.85543060302734 2.999992370605469 M 38.85543060302734 -7.62939453125e-06 C 60.31468200683594 -7.62939453125e-06 77.71085357666016 17.39616775512695 77.71085357666016 38.85543060302734 C 77.71085357666016 60.31468200683594 60.31468200683594 77.71085357666016 38.85543060302734 77.71085357666016 C 17.39616775512695 77.71085357666016 -7.62939453125e-06 60.31468200683594 -7.62939453125e-06 38.85543060302734 C -7.62939453125e-06 32.0528564453125 1.748115539550781 25.6585807800293 4.887840270996094 19.97433090209961 C 11.43744659423828 8.115127563476562 24.1987419128418 -7.62939453125e-06 38.85543060302734 -7.62939453125e-06 Z" stroke="none" fill="#007fbd"/>
        </g>
        <g id="マスクグループ_1-3" data-name="マスクグループ 1" transform="translate(4.334 6.642)" clip-path="url(#clip-path-3)">
          <g id="パス_10-3" data-name="パス 10" transform="translate(8.922 37.242)" fill="#007fbd">
            <path d="M 25.14174842834473 62.12581253051758 C 21.82967758178711 62.12581253051758 18.61549758911133 61.31729507446289 15.58847808837891 59.72271347045898 C 12.65556812286377 58.17770385742188 10.0195779800415 55.96344375610352 7.75372838973999 53.14143371582031 C 5.481388568878174 50.31133270263672 3.696688413619995 47.01383590698242 2.449208498001099 43.34051513671875 C 1.155808448791504 39.5319938659668 0.4999984204769135 35.48532485961914 0.4999984204769135 31.31290435791016 C 0.4999984204769135 27.14048385620117 1.155808448791504 23.09381484985352 2.449208498001099 19.28529357910156 C 3.696688413619995 15.61198425292969 5.481388568878174 12.31447410583496 7.75372838973999 9.484384536743164 C 10.0195779800415 6.662374496459961 12.65556812286377 4.448114395141602 15.58847808837891 2.903104305267334 C 18.61549758911133 1.308524370193481 21.82967758178711 0.5000043511390686 25.14174842834473 0.5000043511390686 C 28.45381927490234 0.5000043511390686 31.66799926757812 1.308524370193481 34.69501876831055 2.903104305267334 C 37.6279296875 4.448114395141602 40.26391983032227 6.662374496459961 42.52976989746094 9.484384536743164 C 44.80210876464844 12.31447410583496 46.58680725097656 15.61198425292969 47.83428955078125 19.28529357910156 C 49.12768936157227 23.09381484985352 49.78349685668945 27.14048385620117 49.78349685668945 31.31290435791016 C 49.78349685668945 35.48532485961914 49.12768936157227 39.5319938659668 47.83428955078125 43.34051513671875 C 46.58680725097656 47.01383590698242 44.80210876464844 50.31133270263672 42.52976989746094 53.14143371582031 C 40.26391983032227 55.96344375610352 37.6279296875 58.17770385742188 34.69501876831055 59.72271347045898 C 31.66799926757812 61.31729507446289 28.45381927490234 62.12581253051758 25.14174842834473 62.12581253051758 Z" stroke="none"/>
            <path d="M 25.14174842834473 0.9999961853027344 C 21.91171836853027 0.9999961853027344 18.77593803405762 1.78912353515625 15.82151031494141 3.345462799072266 C 12.94953918457031 4.858375549316406 10.36631774902344 7.029125213623047 8.143596649169922 9.797412872314453 C 5.90789794921875 12.58188247680664 4.151309967041016 15.82816314697266 2.922649383544922 19.44607543945312 C 1.646869659423828 23.20271301269531 1 27.19528579711914 1 31.31290435791016 C 1 35.43052673339844 1.646869659423828 39.423095703125 2.922649383544922 43.17973327636719 C 4.151309967041016 46.79764556884766 5.90789794921875 50.04391479492188 8.143596649169922 52.82838439941406 C 10.36631774902344 55.59668350219727 12.94953918457031 57.76743316650391 15.82151031494141 59.28033447265625 C 18.77593803405762 60.83667373657227 21.91171836853027 61.62580490112305 25.14174842834473 61.62580490112305 C 28.37177848815918 61.62580490112305 31.50755882263184 60.83667373657227 34.46197891235352 59.28033447265625 C 37.33394622802734 57.76743316650391 39.91716766357422 55.59668350219727 42.13988876342773 52.82838439941406 C 44.3755989074707 50.04391479492188 46.13217926025391 46.79763412475586 47.36084747314453 43.17973327636719 C 48.63662719726562 39.423095703125 49.28349685668945 35.43052673339844 49.28349685668945 31.31290435791016 C 49.28349685668945 27.19528579711914 48.63662719726562 23.20271301269531 47.36084747314453 19.44607543945312 C 46.13217926025391 15.82816314697266 44.3755989074707 12.58188247680664 42.13988876342773 9.797412872314453 C 39.91716766357422 7.029125213623047 37.33394622802734 4.858375549316406 34.46197891235352 3.345462799072266 C 31.50755882263184 1.78912353515625 28.37177848815918 0.9999961853027344 25.14174842834473 0.9999961853027344 M 25.14174842834473 -3.814697265625e-06 C 39.02714920043945 -3.814697265625e-06 50.28349685668945 14.01926422119141 50.28349685668945 31.31290435791016 C 50.28349685668945 48.60654449462891 39.02714920043945 62.62580490112305 25.14174842834473 62.62580490112305 C 11.25634002685547 62.62580490112305 0 48.60654449462891 0 31.31290435791016 C 0 14.01926422119141 11.25634002685547 -3.814697265625e-06 25.14174842834473 -3.814697265625e-06 Z" stroke="none" fill="#707070"/>
          </g>
          <g id="パス_9-3" data-name="パス 9" transform="translate(18.065 1.13)" fill="#007fbd">
            <path d="M 15.99929332733154 31.49858283996582 C 11.85928344726562 31.49858283996582 7.967073440551758 29.88637351989746 5.039643287658691 26.95894241333008 C 2.112213373184204 24.03151321411133 0.5000033378601074 20.13930320739746 0.5000033378601074 15.99929332733154 C 0.5000033378601074 11.85928344726562 2.112213373184204 7.967073440551758 5.039643287658691 5.039643287658691 C 7.967073440551758 2.112213373184204 11.85928344726562 0.5000033378601074 15.99929332733154 0.5000033378601074 C 20.13930320739746 0.5000033378601074 24.03151321411133 2.112213373184204 26.95894241333008 5.039643287658691 C 29.88637351989746 7.967073440551758 31.49858283996582 11.85928344726562 31.49858283996582 15.99929332733154 C 31.49858283996582 20.13930320739746 29.88637351989746 24.03151321411133 26.95894241333008 26.95894241333008 C 24.03151321411133 29.88637351989746 20.13930320739746 31.49858283996582 15.99929332733154 31.49858283996582 Z" stroke="none"/>
            <path d="M 15.99929332733154 1.000003814697266 C 11.99283409118652 1.000003814697266 8.22618293762207 2.560203552246094 5.393194198608398 5.393194198608398 C 2.560203552246094 8.22618293762207 1.000003814697266 11.99283409118652 1.000003814697266 15.99929332733154 C 1.000003814697266 20.0057430267334 2.560203552246094 23.77240371704102 5.393194198608398 26.60539245605469 C 8.22618293762207 29.43838310241699 11.99283409118652 30.99858283996582 15.99929332733154 30.99858283996582 C 20.0057430267334 30.99858283996582 23.77240371704102 29.43838310241699 26.60539245605469 26.60539245605469 C 29.43838310241699 23.77240371704102 30.99858283996582 20.0057430267334 30.99858283996582 15.99929332733154 C 30.99858283996582 11.99283409118652 29.43838310241699 8.22618293762207 26.60539245605469 5.393194198608398 C 23.77240371704102 2.560203552246094 20.0057430267334 1.000003814697266 15.99929332733154 1.000003814697266 M 15.99929332733154 3.814697265625e-06 C 24.83545303344727 3.814697265625e-06 31.99858283996582 7.163124084472656 31.99858283996582 15.99929332733154 C 31.99858283996582 24.83545303344727 24.83545303344727 31.99858283996582 15.99929332733154 31.99858283996582 C 7.163124084472656 31.99858283996582 3.814697265625e-06 24.83545303344727 3.814697265625e-06 15.99929332733154 C 3.814697265625e-06 7.163124084472656 7.163124084472656 3.814697265625e-06 15.99929332733154 3.814697265625e-06 Z" stroke="none" fill="#707070"/>
          </g>
        </g>
      </g>
      <g id="グループ_16" data-name="グループ 16" transform="translate(1230.558 3012.82)">
        <g id="パス_11-4" data-name="パス 11" transform="translate(0 0)" fill="#fff">
          <path d="M 38.85543060302734 76.21086120605469 C 33.81182098388672 76.21086120605469 28.91987419128418 75.22339630126953 24.31547546386719 73.27590942382812 C 19.86739730834961 71.39451599121094 15.8722972869873 68.70085144042969 12.44115257263184 65.26970672607422 C 9.010008811950684 61.83856582641602 6.316341876983643 57.84346389770508 4.434952735900879 53.3953857421875 C 2.48746395111084 48.79098510742188 1.49999725818634 43.89904022216797 1.49999725818634 38.85543060302734 C 1.49999725818634 35.64231872558594 1.90957510471344 32.45312118530273 2.717352867126465 29.37641906738281 C 3.504352807998657 26.37886428833008 4.676374912261963 23.45955276489258 6.200852870941162 20.69958686828613 C 9.347075462341309 15.00280857086182 13.98189735412598 10.20527458190918 19.60427474975586 6.82557487487793 C 25.40020751953125 3.341552734375 32.0571403503418 1.49999725818634 38.85543060302734 1.49999725818634 C 43.89904022216797 1.49999725818634 48.79098510742188 2.48746395111084 53.3953857421875 4.434952735900879 C 57.84346389770508 6.316341876983643 61.83856582641602 9.010008811950684 65.26970672607422 12.44115257263184 C 68.70085144042969 15.8722972869873 71.39451599121094 19.86739730834961 73.27590942382812 24.31547546386719 C 75.22339630126953 28.91987419128418 76.21086120605469 33.81182098388672 76.21086120605469 38.85543060302734 C 76.21086120605469 43.89904022216797 75.22339630126953 48.79098510742188 73.27590942382812 53.3953857421875 C 71.39451599121094 57.84346389770508 68.70085144042969 61.83856582641602 65.26970672607422 65.26970672607422 C 61.83856582641602 68.70085144042969 57.84346389770508 71.39451599121094 53.3953857421875 73.27590942382812 C 48.79098510742188 75.22339630126953 43.89904022216797 76.21086120605469 38.85543060302734 76.21086120605469 Z" stroke="none"/>
          <path d="M 38.85543060302734 2.999992370605469 C 32.32938003540039 2.999992370605469 25.93966674804688 4.767402648925781 20.37707901000977 8.111167907714844 C 14.98065567016602 11.35504150390625 10.53266906738281 15.95878219604492 7.513877868652344 21.42483139038086 C 4.518684387207031 26.84741973876953 2.999992370605469 32.71191787719727 2.999992370605469 38.85543060302734 C 2.999992370605469 43.69720458984375 3.947593688964844 48.39255523681641 5.816452026367188 52.81105804443359 C 7.622215270996094 57.08032989501953 10.20794677734375 60.91516876220703 13.50180816650391 64.20904541015625 C 16.79568099975586 67.50290679931641 20.63051986694336 70.08863067626953 24.8997917175293 71.89439392089844 C 29.31830596923828 73.76325225830078 34.01365661621094 74.71085357666016 38.85543060302734 74.71085357666016 C 43.69720458984375 74.71085357666016 48.39255523681641 73.76325225830078 52.81105804443359 71.89439392089844 C 57.08032989501953 70.08863067626953 60.91516876220703 67.50290679931641 64.20904541015625 64.20904541015625 C 67.50290679931641 60.91516876220703 70.08863067626953 57.08032989501953 71.89439392089844 52.81105804443359 C 73.76325225830078 48.39255523681641 74.71085357666016 43.69720458984375 74.71085357666016 38.85543060302734 C 74.71085357666016 34.01365661621094 73.76325225830078 29.31830596923828 71.89439392089844 24.8997917175293 C 70.08863067626953 20.63051986694336 67.50290679931641 16.79568099975586 64.20904541015625 13.50180816650391 C 60.91516876220703 10.20794677734375 57.08032989501953 7.622215270996094 52.81105804443359 5.816452026367188 C 48.39255523681641 3.947593688964844 43.69720458984375 2.999992370605469 38.85543060302734 2.999992370605469 M 38.85543060302734 -7.62939453125e-06 C 60.31468200683594 -7.62939453125e-06 77.71085357666016 17.39616775512695 77.71085357666016 38.85543060302734 C 77.71085357666016 60.31468200683594 60.31468200683594 77.71085357666016 38.85543060302734 77.71085357666016 C 17.39616775512695 77.71085357666016 -7.62939453125e-06 60.31468200683594 -7.62939453125e-06 38.85543060302734 C -7.62939453125e-06 32.0528564453125 1.748115539550781 25.6585807800293 4.887840270996094 19.97433090209961 C 11.43744659423828 8.115127563476562 24.1987419128418 -7.62939453125e-06 38.85543060302734 -7.62939453125e-06 Z" stroke="none" fill="#007fbd"/>
        </g>
        <g id="マスクグループ_1-4" data-name="マスクグループ 1" transform="translate(4.334 6.165)" clip-path="url(#clip-path-4)">
          <g id="パス_10-4" data-name="パス 10" transform="translate(8.922 37.719)" fill="#007fbd">
            <path d="M 25.14174842834473 62.12581253051758 C 21.82967758178711 62.12581253051758 18.61549758911133 61.31729507446289 15.58847808837891 59.72271347045898 C 12.65556812286377 58.17770385742188 10.0195779800415 55.96344375610352 7.75372838973999 53.14143371582031 C 5.481388568878174 50.31133270263672 3.696688413619995 47.01383590698242 2.449208498001099 43.34051513671875 C 1.155808448791504 39.5319938659668 0.4999984204769135 35.48532485961914 0.4999984204769135 31.31290435791016 C 0.4999984204769135 27.14048385620117 1.155808448791504 23.09381484985352 2.449208498001099 19.28529357910156 C 3.696688413619995 15.61198425292969 5.481388568878174 12.31447410583496 7.75372838973999 9.484384536743164 C 10.0195779800415 6.662374496459961 12.65556812286377 4.448114395141602 15.58847808837891 2.903104305267334 C 18.61549758911133 1.308524370193481 21.82967758178711 0.5000043511390686 25.14174842834473 0.5000043511390686 C 28.45381927490234 0.5000043511390686 31.66799926757812 1.308524370193481 34.69501876831055 2.903104305267334 C 37.6279296875 4.448114395141602 40.26391983032227 6.662374496459961 42.52976989746094 9.484384536743164 C 44.80210876464844 12.31447410583496 46.58680725097656 15.61198425292969 47.83428955078125 19.28529357910156 C 49.12768936157227 23.09381484985352 49.78349685668945 27.14048385620117 49.78349685668945 31.31290435791016 C 49.78349685668945 35.48532485961914 49.12768936157227 39.5319938659668 47.83428955078125 43.34051513671875 C 46.58680725097656 47.01383590698242 44.80210876464844 50.31133270263672 42.52976989746094 53.14143371582031 C 40.26391983032227 55.96344375610352 37.6279296875 58.17770385742188 34.69501876831055 59.72271347045898 C 31.66799926757812 61.31729507446289 28.45381927490234 62.12581253051758 25.14174842834473 62.12581253051758 Z" stroke="none"/>
            <path d="M 25.14174842834473 0.9999961853027344 C 21.91171836853027 0.9999961853027344 18.77593803405762 1.78912353515625 15.82151031494141 3.345462799072266 C 12.94953918457031 4.858375549316406 10.36631774902344 7.029125213623047 8.143596649169922 9.797412872314453 C 5.90789794921875 12.58188247680664 4.151309967041016 15.82816314697266 2.922649383544922 19.44607543945312 C 1.646869659423828 23.20271301269531 1 27.19528579711914 1 31.31290435791016 C 1 35.43052673339844 1.646869659423828 39.423095703125 2.922649383544922 43.17973327636719 C 4.151309967041016 46.79764556884766 5.90789794921875 50.04391479492188 8.143596649169922 52.82838439941406 C 10.36631774902344 55.59668350219727 12.94953918457031 57.76743316650391 15.82151031494141 59.28033447265625 C 18.77593803405762 60.83667373657227 21.91171836853027 61.62580490112305 25.14174842834473 61.62580490112305 C 28.37177848815918 61.62580490112305 31.50755882263184 60.83667373657227 34.46197891235352 59.28033447265625 C 37.33394622802734 57.76743316650391 39.91716766357422 55.59668350219727 42.13988876342773 52.82838439941406 C 44.3755989074707 50.04391479492188 46.13217926025391 46.79763412475586 47.36084747314453 43.17973327636719 C 48.63662719726562 39.423095703125 49.28349685668945 35.43052673339844 49.28349685668945 31.31290435791016 C 49.28349685668945 27.19528579711914 48.63662719726562 23.20271301269531 47.36084747314453 19.44607543945312 C 46.13217926025391 15.82816314697266 44.3755989074707 12.58188247680664 42.13988876342773 9.797412872314453 C 39.91716766357422 7.029125213623047 37.33394622802734 4.858375549316406 34.46197891235352 3.345462799072266 C 31.50755882263184 1.78912353515625 28.37177848815918 0.9999961853027344 25.14174842834473 0.9999961853027344 M 25.14174842834473 -3.814697265625e-06 C 39.02714920043945 -3.814697265625e-06 50.28349685668945 14.01926422119141 50.28349685668945 31.31290435791016 C 50.28349685668945 48.60654449462891 39.02714920043945 62.62580490112305 25.14174842834473 62.62580490112305 C 11.25634002685547 62.62580490112305 0 48.60654449462891 0 31.31290435791016 C 0 14.01926422119141 11.25634002685547 -3.814697265625e-06 25.14174842834473 -3.814697265625e-06 Z" stroke="none" fill="#707070"/>
          </g>
          <g id="パス_9-4" data-name="パス 9" transform="translate(18.065 1.606)" fill="#007fbd">
            <path d="M 15.99929332733154 31.49858283996582 C 11.85928344726562 31.49858283996582 7.967073440551758 29.88637351989746 5.039643287658691 26.95894241333008 C 2.112213373184204 24.03151321411133 0.5000033378601074 20.13930320739746 0.5000033378601074 15.99929332733154 C 0.5000033378601074 11.85928344726562 2.112213373184204 7.967073440551758 5.039643287658691 5.039643287658691 C 7.967073440551758 2.112213373184204 11.85928344726562 0.5000033378601074 15.99929332733154 0.5000033378601074 C 20.13930320739746 0.5000033378601074 24.03151321411133 2.112213373184204 26.95894241333008 5.039643287658691 C 29.88637351989746 7.967073440551758 31.49858283996582 11.85928344726562 31.49858283996582 15.99929332733154 C 31.49858283996582 20.13930320739746 29.88637351989746 24.03151321411133 26.95894241333008 26.95894241333008 C 24.03151321411133 29.88637351989746 20.13930320739746 31.49858283996582 15.99929332733154 31.49858283996582 Z" stroke="none"/>
            <path d="M 15.99929332733154 1.000003814697266 C 11.99283409118652 1.000003814697266 8.22618293762207 2.560203552246094 5.393194198608398 5.393194198608398 C 2.560203552246094 8.22618293762207 1.000003814697266 11.99283409118652 1.000003814697266 15.99929332733154 C 1.000003814697266 20.0057430267334 2.560203552246094 23.77240371704102 5.393194198608398 26.60539245605469 C 8.22618293762207 29.43838310241699 11.99283409118652 30.99858283996582 15.99929332733154 30.99858283996582 C 20.0057430267334 30.99858283996582 23.77240371704102 29.43838310241699 26.60539245605469 26.60539245605469 C 29.43838310241699 23.77240371704102 30.99858283996582 20.0057430267334 30.99858283996582 15.99929332733154 C 30.99858283996582 11.99283409118652 29.43838310241699 8.22618293762207 26.60539245605469 5.393194198608398 C 23.77240371704102 2.560203552246094 20.0057430267334 1.000003814697266 15.99929332733154 1.000003814697266 M 15.99929332733154 3.814697265625e-06 C 24.83545303344727 3.814697265625e-06 31.99858283996582 7.163124084472656 31.99858283996582 15.99929332733154 C 31.99858283996582 24.83545303344727 24.83545303344727 31.99858283996582 15.99929332733154 31.99858283996582 C 7.163124084472656 31.99858283996582 3.814697265625e-06 24.83545303344727 3.814697265625e-06 15.99929332733154 C 3.814697265625e-06 7.163124084472656 7.163124084472656 3.814697265625e-06 15.99929332733154 3.814697265625e-06 Z" stroke="none" fill="#707070"/>
          </g>
        </g>
      </g>
      <g id="グループ_17" data-name="グループ 17" transform="translate(922 3012.82)">
        <g id="パス_11-5" data-name="パス 11" transform="translate(0 0)" fill="#fff">
          <path d="M 38.85543060302734 76.21086120605469 C 33.81182098388672 76.21086120605469 28.91987419128418 75.22339630126953 24.31547546386719 73.27590942382812 C 19.86739730834961 71.39451599121094 15.8722972869873 68.70085144042969 12.44115257263184 65.26970672607422 C 9.010008811950684 61.83856582641602 6.316341876983643 57.84346389770508 4.434952735900879 53.3953857421875 C 2.48746395111084 48.79098510742188 1.49999725818634 43.89904022216797 1.49999725818634 38.85543060302734 C 1.49999725818634 35.64231872558594 1.90957510471344 32.45312118530273 2.717352867126465 29.37641906738281 C 3.504352807998657 26.37886428833008 4.676374912261963 23.45955276489258 6.200852870941162 20.69958686828613 C 9.347075462341309 15.00280857086182 13.98189735412598 10.20527458190918 19.60427474975586 6.82557487487793 C 25.40020751953125 3.341552734375 32.0571403503418 1.49999725818634 38.85543060302734 1.49999725818634 C 43.89904022216797 1.49999725818634 48.79098510742188 2.48746395111084 53.3953857421875 4.434952735900879 C 57.84346389770508 6.316341876983643 61.83856582641602 9.010008811950684 65.26970672607422 12.44115257263184 C 68.70085144042969 15.8722972869873 71.39451599121094 19.86739730834961 73.27590942382812 24.31547546386719 C 75.22339630126953 28.91987419128418 76.21086120605469 33.81182098388672 76.21086120605469 38.85543060302734 C 76.21086120605469 43.89904022216797 75.22339630126953 48.79098510742188 73.27590942382812 53.3953857421875 C 71.39451599121094 57.84346389770508 68.70085144042969 61.83856582641602 65.26970672607422 65.26970672607422 C 61.83856582641602 68.70085144042969 57.84346389770508 71.39451599121094 53.3953857421875 73.27590942382812 C 48.79098510742188 75.22339630126953 43.89904022216797 76.21086120605469 38.85543060302734 76.21086120605469 Z" stroke="none"/>
          <path d="M 38.85543060302734 2.999992370605469 C 32.32938003540039 2.999992370605469 25.93966674804688 4.767402648925781 20.37707901000977 8.111167907714844 C 14.98065567016602 11.35504150390625 10.53266906738281 15.95878219604492 7.513877868652344 21.42483139038086 C 4.518684387207031 26.84741973876953 2.999992370605469 32.71191787719727 2.999992370605469 38.85543060302734 C 2.999992370605469 43.69720458984375 3.947593688964844 48.39255523681641 5.816452026367188 52.81105804443359 C 7.622215270996094 57.08032989501953 10.20794677734375 60.91516876220703 13.50180816650391 64.20904541015625 C 16.79568099975586 67.50290679931641 20.63051986694336 70.08863067626953 24.8997917175293 71.89439392089844 C 29.31830596923828 73.76325225830078 34.01365661621094 74.71085357666016 38.85543060302734 74.71085357666016 C 43.69720458984375 74.71085357666016 48.39255523681641 73.76325225830078 52.81105804443359 71.89439392089844 C 57.08032989501953 70.08863067626953 60.91516876220703 67.50290679931641 64.20904541015625 64.20904541015625 C 67.50290679931641 60.91516876220703 70.08863067626953 57.08032989501953 71.89439392089844 52.81105804443359 C 73.76325225830078 48.39255523681641 74.71085357666016 43.69720458984375 74.71085357666016 38.85543060302734 C 74.71085357666016 34.01365661621094 73.76325225830078 29.31830596923828 71.89439392089844 24.8997917175293 C 70.08863067626953 20.63051986694336 67.50290679931641 16.79568099975586 64.20904541015625 13.50180816650391 C 60.91516876220703 10.20794677734375 57.08032989501953 7.622215270996094 52.81105804443359 5.816452026367188 C 48.39255523681641 3.947593688964844 43.69720458984375 2.999992370605469 38.85543060302734 2.999992370605469 M 38.85543060302734 -7.62939453125e-06 C 60.31468200683594 -7.62939453125e-06 77.71085357666016 17.39616775512695 77.71085357666016 38.85543060302734 C 77.71085357666016 60.31468200683594 60.31468200683594 77.71085357666016 38.85543060302734 77.71085357666016 C 17.39616775512695 77.71085357666016 -7.62939453125e-06 60.31468200683594 -7.62939453125e-06 38.85543060302734 C -7.62939453125e-06 32.0528564453125 1.748115539550781 25.6585807800293 4.887840270996094 19.97433090209961 C 11.43744659423828 8.115127563476562 24.1987419128418 -7.62939453125e-06 38.85543060302734 -7.62939453125e-06 Z" stroke="none" fill="#007fbd"/>
        </g>
        <g id="マスクグループ_1-5" data-name="マスクグループ 1" transform="translate(4.428 6.165)" clip-path="url(#clip-path-5)">
          <g id="パス_10-5" data-name="パス 10" transform="translate(8.829 37.719)" fill="#007fbd">
            <path d="M 25.14174842834473 62.12581253051758 C 21.82967758178711 62.12581253051758 18.61549758911133 61.31729507446289 15.58847808837891 59.72271347045898 C 12.65556812286377 58.17770385742188 10.0195779800415 55.96344375610352 7.75372838973999 53.14143371582031 C 5.481388568878174 50.31133270263672 3.696688413619995 47.01383590698242 2.449208498001099 43.34051513671875 C 1.155808448791504 39.5319938659668 0.4999984204769135 35.48532485961914 0.4999984204769135 31.31290435791016 C 0.4999984204769135 27.14048385620117 1.155808448791504 23.09381484985352 2.449208498001099 19.28529357910156 C 3.696688413619995 15.61198425292969 5.481388568878174 12.31447410583496 7.75372838973999 9.484384536743164 C 10.0195779800415 6.662374496459961 12.65556812286377 4.448114395141602 15.58847808837891 2.903104305267334 C 18.61549758911133 1.308524370193481 21.82967758178711 0.5000043511390686 25.14174842834473 0.5000043511390686 C 28.45381927490234 0.5000043511390686 31.66799926757812 1.308524370193481 34.69501876831055 2.903104305267334 C 37.6279296875 4.448114395141602 40.26391983032227 6.662374496459961 42.52976989746094 9.484384536743164 C 44.80210876464844 12.31447410583496 46.58680725097656 15.61198425292969 47.83428955078125 19.28529357910156 C 49.12768936157227 23.09381484985352 49.78349685668945 27.14048385620117 49.78349685668945 31.31290435791016 C 49.78349685668945 35.48532485961914 49.12768936157227 39.5319938659668 47.83428955078125 43.34051513671875 C 46.58680725097656 47.01383590698242 44.80210876464844 50.31133270263672 42.52976989746094 53.14143371582031 C 40.26391983032227 55.96344375610352 37.6279296875 58.17770385742188 34.69501876831055 59.72271347045898 C 31.66799926757812 61.31729507446289 28.45381927490234 62.12581253051758 25.14174842834473 62.12581253051758 Z" stroke="none"/>
            <path d="M 25.14174842834473 0.9999961853027344 C 21.91171836853027 0.9999961853027344 18.77593803405762 1.78912353515625 15.82151031494141 3.345462799072266 C 12.94953918457031 4.858375549316406 10.36631774902344 7.029125213623047 8.143596649169922 9.797412872314453 C 5.90789794921875 12.58188247680664 4.151309967041016 15.82816314697266 2.922649383544922 19.44607543945312 C 1.646869659423828 23.20271301269531 1 27.19528579711914 1 31.31290435791016 C 1 35.43052673339844 1.646869659423828 39.423095703125 2.922649383544922 43.17973327636719 C 4.151309967041016 46.79764556884766 5.90789794921875 50.04391479492188 8.143596649169922 52.82838439941406 C 10.36631774902344 55.59668350219727 12.94953918457031 57.76743316650391 15.82151031494141 59.28033447265625 C 18.77593803405762 60.83667373657227 21.91171836853027 61.62580490112305 25.14174842834473 61.62580490112305 C 28.37177848815918 61.62580490112305 31.50755882263184 60.83667373657227 34.46197891235352 59.28033447265625 C 37.33394622802734 57.76743316650391 39.91716766357422 55.59668350219727 42.13988876342773 52.82838439941406 C 44.3755989074707 50.04391479492188 46.13217926025391 46.79763412475586 47.36084747314453 43.17973327636719 C 48.63662719726562 39.423095703125 49.28349685668945 35.43052673339844 49.28349685668945 31.31290435791016 C 49.28349685668945 27.19528579711914 48.63662719726562 23.20271301269531 47.36084747314453 19.44607543945312 C 46.13217926025391 15.82816314697266 44.3755989074707 12.58188247680664 42.13988876342773 9.797412872314453 C 39.91716766357422 7.029125213623047 37.33394622802734 4.858375549316406 34.46197891235352 3.345462799072266 C 31.50755882263184 1.78912353515625 28.37177848815918 0.9999961853027344 25.14174842834473 0.9999961853027344 M 25.14174842834473 -3.814697265625e-06 C 39.02714920043945 -3.814697265625e-06 50.28349685668945 14.01926422119141 50.28349685668945 31.31290435791016 C 50.28349685668945 48.60654449462891 39.02714920043945 62.62580490112305 25.14174842834473 62.62580490112305 C 11.25634002685547 62.62580490112305 0 48.60654449462891 0 31.31290435791016 C 0 14.01926422119141 11.25634002685547 -3.814697265625e-06 25.14174842834473 -3.814697265625e-06 Z" stroke="none" fill="#707070"/>
          </g>
          <g id="パス_9-5" data-name="パス 9" transform="translate(17.971 1.606)" fill="#007fbd">
            <path d="M 15.99929332733154 31.49858283996582 C 11.85928344726562 31.49858283996582 7.967073440551758 29.88637351989746 5.039643287658691 26.95894241333008 C 2.112213373184204 24.03151321411133 0.5000033378601074 20.13930320739746 0.5000033378601074 15.99929332733154 C 0.5000033378601074 11.85928344726562 2.112213373184204 7.967073440551758 5.039643287658691 5.039643287658691 C 7.967073440551758 2.112213373184204 11.85928344726562 0.5000033378601074 15.99929332733154 0.5000033378601074 C 20.13930320739746 0.5000033378601074 24.03151321411133 2.112213373184204 26.95894241333008 5.039643287658691 C 29.88637351989746 7.967073440551758 31.49858283996582 11.85928344726562 31.49858283996582 15.99929332733154 C 31.49858283996582 20.13930320739746 29.88637351989746 24.03151321411133 26.95894241333008 26.95894241333008 C 24.03151321411133 29.88637351989746 20.13930320739746 31.49858283996582 15.99929332733154 31.49858283996582 Z" stroke="none"/>
            <path d="M 15.99929332733154 1.000003814697266 C 11.99283409118652 1.000003814697266 8.22618293762207 2.560203552246094 5.393194198608398 5.393194198608398 C 2.560203552246094 8.22618293762207 1.000003814697266 11.99283409118652 1.000003814697266 15.99929332733154 C 1.000003814697266 20.0057430267334 2.560203552246094 23.77240371704102 5.393194198608398 26.60539245605469 C 8.22618293762207 29.43838310241699 11.99283409118652 30.99858283996582 15.99929332733154 30.99858283996582 C 20.0057430267334 30.99858283996582 23.77240371704102 29.43838310241699 26.60539245605469 26.60539245605469 C 29.43838310241699 23.77240371704102 30.99858283996582 20.0057430267334 30.99858283996582 15.99929332733154 C 30.99858283996582 11.99283409118652 29.43838310241699 8.22618293762207 26.60539245605469 5.393194198608398 C 23.77240371704102 2.560203552246094 20.0057430267334 1.000003814697266 15.99929332733154 1.000003814697266 M 15.99929332733154 3.814697265625e-06 C 24.83545303344727 3.814697265625e-06 31.99858283996582 7.163124084472656 31.99858283996582 15.99929332733154 C 31.99858283996582 24.83545303344727 24.83545303344727 31.99858283996582 15.99929332733154 31.99858283996582 C 7.163124084472656 31.99858283996582 3.814697265625e-06 24.83545303344727 3.814697265625e-06 15.99929332733154 C 3.814697265625e-06 7.163124084472656 7.163124084472656 3.814697265625e-06 15.99929332733154 3.814697265625e-06 Z" stroke="none" fill="#707070"/>
          </g>
        </g>
      </g>
      <text id="STORY" transform="translate(1052 3000)" fill="#007fbd" font-size="35" font-family="LucidaGrande-Bold, Lucida Grande" font-weight="700"><tspan x="0" y="0">STORY</tspan></text>
      <g id="長方形_94" data-name="長方形 94" transform="translate(1017 2853)" fill="#fff" stroke="#007fbd" stroke-width="4">
        <rect width="196" height="203" stroke="none"/>
        <rect x="2" y="2" width="192" height="199" fill="none"/>
      </g>
      <rect id="長方形_95" data-name="長方形 95" width="82" height="9" transform="translate(1115 2887)" fill="#007fbd"/>
      <rect id="長方形_96" data-name="長方形 96" width="82" height="10" transform="translate(1115 2916)" fill="#007fbd"/>
      <g id="グループ_23" data-name="グループ 23" transform="translate(1032.167 2875.226)">
        <g id="パス_11-6" data-name="パス 11" fill="#fff">
          <path d="M 34.28420257568359 67.06840515136719 C 29.85770225524902 67.06840515136719 25.56440162658691 66.20180511474609 21.52357292175293 64.49267578125 C 17.61983299255371 62.84153366088867 14.11360263824463 60.47746276855469 11.10227298736572 57.46613311767578 C 8.0909423828125 54.45480346679688 5.726872444152832 50.94857406616211 4.075732707977295 47.04483413696289 C 2.366602659225464 43.00400161743164 1.50000262260437 38.71070098876953 1.50000262260437 34.28420257568359 C 1.50000262260437 28.66722297668457 2.888132572174072 23.30606269836426 5.6258225440979 18.34966278076172 C 8.386902809143066 13.35024261474609 12.45446300506592 9.139922142028809 17.38881301879883 6.173812389373779 C 22.47540283203125 3.116182565689087 28.3177433013916 1.50000262260437 34.28420257568359 1.50000262260437 C 38.71070098876953 1.50000262260437 43.00400161743164 2.366602659225464 47.04483413696289 4.075732707977295 C 50.94857406616211 5.726872444152832 54.45480346679688 8.0909423828125 57.46613311767578 11.10227298736572 C 60.47746276855469 14.11360263824463 62.84153366088867 17.61983299255371 64.49267578125 21.52357292175293 C 66.20180511474609 25.56440162658691 67.06840515136719 29.85770225524902 67.06840515136719 34.28420257568359 C 67.06840515136719 38.71070098876953 66.20180511474609 43.00400161743164 64.49267578125 47.04483413696289 C 62.84153366088867 50.94857406616211 60.47746276855469 54.45480346679688 57.46613311767578 57.46613311767578 C 54.45480346679688 60.47746276855469 50.94857406616211 62.84153366088867 47.04483413696289 64.49267578125 C 43.00400161743164 66.20180511474609 38.71070098876953 67.06840515136719 34.28420257568359 67.06840515136719 Z" stroke="none"/>
          <path d="M 34.28420257568359 3 C 28.5899772644043 3 23.01487350463867 4.54205322265625 18.16160202026367 7.459426879882812 C 13.45323944091797 10.28969573974609 9.572498321533203 14.30621337890625 6.938838958740234 19.07492065429688 C 4.325210571289062 23.80668640136719 3 28.92382431030273 3 34.28420257568359 C 3 38.50886154174805 3.826728820800781 42.60556793212891 5.457237243652344 46.46051025390625 C 7.032756805419922 50.18544769287109 9.288871765136719 53.53142547607422 12.16293334960938 56.40547180175781 C 15.03697967529297 59.27953338623047 18.38295364379883 61.53564834594727 22.10789489746094 63.11116790771484 C 25.96283721923828 64.74167633056641 30.05954360961914 65.56840515136719 34.28420257568359 65.56840515136719 C 38.50886154174805 65.56840515136719 42.60556793212891 64.74167633056641 46.46051025390625 63.11116790771484 C 50.18544769287109 61.53564834594727 53.53142547607422 59.27953338623047 56.40547180175781 56.40547180175781 C 59.27953338623047 53.53142547607422 61.53564834594727 50.18544769287109 63.11116790771484 46.46051025390625 C 64.74167633056641 42.60556793212891 65.56840515136719 38.50886154174805 65.56840515136719 34.28420257568359 C 65.56840515136719 30.05954360961914 64.74167633056641 25.96283721923828 63.11116790771484 22.10789489746094 C 61.53564834594727 18.38295364379883 59.27953338623047 15.03697967529297 56.40547180175781 12.16293334960938 C 53.53142547607422 9.288871765136719 50.18544769287109 7.032756805419922 46.46051025390625 5.457237243652344 C 42.60556793212891 3.826728820800781 38.50886154174805 3 34.28420257568359 3 M 34.28420257568359 0 C 53.21884918212891 0 68.56840515136719 15.34955596923828 68.56840515136719 34.28420257568359 C 68.56840515136719 53.21884918212891 53.21884918212891 68.56840515136719 34.28420257568359 68.56840515136719 C 15.34955596923828 68.56840515136719 0 53.21884918212891 0 34.28420257568359 C 0 28.28193283081055 1.542465209960938 22.63991928100586 4.31280517578125 17.62441253662109 C 10.09186172485352 7.160415649414062 21.35182571411133 0 34.28420257568359 0 Z" stroke="none" fill="#007fbd"/>
        </g>
        <g id="マスクグループ_1-6" data-name="マスクグループ 1" transform="translate(4.216 6.5)" clip-path="url(#clip-path)">
          <g id="パス_10-6" data-name="パス 10" transform="translate(7.882 32.386)" fill="#007fbd">
            <path d="M 21.78951644897461 53.77569961547852 C 18.92999649047852 53.77569961547852 16.15481567382812 53.07756805419922 13.54108619689941 51.70069885253906 C 11.00735664367676 50.36597061157227 8.729856491088867 48.45275115966797 6.771876335144043 46.0141716003418 C 4.807396411895752 43.56750106811523 3.264406442642212 40.71649169921875 2.185766458511353 37.54034042358398 C 1.067176461219788 34.24654006958008 0.4999964535236359 30.74663925170898 0.4999964535236359 27.13784980773926 C 0.4999964535236359 23.52906036376953 1.067176461219788 20.02915954589844 2.185766458511353 16.73535919189453 C 3.264406442642212 13.5592098236084 4.807396411895752 10.7081995010376 6.771876335144043 8.261529922485352 C 8.729856491088867 5.822949886322021 11.00735664367676 3.909729719161987 13.54108619689941 2.574999809265137 C 16.15481567382812 1.198129773139954 18.92999649047852 0.4999998211860657 21.78951644897461 0.4999998211860657 C 24.6490364074707 0.4999998211860657 27.4242057800293 1.198129773139954 30.0379467010498 2.574999809265137 C 32.57167816162109 3.909729719161987 34.84916687011719 5.822949886322021 36.80715560913086 8.261529922485352 C 38.77162551879883 10.7081995010376 40.31461715698242 13.5592098236084 41.39326477050781 16.73535919189453 C 42.51185607910156 20.02915954589844 43.07903671264648 23.52906036376953 43.07903671264648 27.13784980773926 C 43.07903671264648 30.74663925170898 42.51185607910156 34.24654006958008 41.39326477050781 37.54034042358398 C 40.31461715698242 40.71649169921875 38.77162551879883 43.56750106811523 36.80715560913086 46.0141716003418 C 34.84916687011719 48.45275115966797 32.57167816162109 50.36597061157227 30.0379467010498 51.70069885253906 C 27.4242057800293 53.07756805419922 24.6490364074707 53.77569961547852 21.78951644897461 53.77569961547852 Z" stroke="none"/>
            <path d="M 21.78951644897461 1 C 10.32613754272461 1 0.9999961853027344 12.72539138793945 0.9999961853027344 27.13784980773926 C 0.9999961853027344 41.55030822753906 10.32613754272461 53.27569961547852 21.78951644897461 53.27569961547852 C 33.25289535522461 53.27569961547852 42.57903671264648 41.55030822753906 42.57903671264648 27.13784980773926 C 42.57903671264648 12.72539138793945 33.25289535522461 1 21.78951644897461 1 M 21.78951644897461 0 C 33.82352447509766 0 43.57903671264648 12.15002822875977 43.57903671264648 27.13784980773926 C 43.57903671264648 42.12567138671875 33.82352447509766 54.27569961547852 21.78951644897461 54.27569961547852 C 9.755496978759766 54.27569961547852 -3.814697265625e-06 42.12567138671875 -3.814697265625e-06 27.13784980773926 C -3.814697265625e-06 12.15002822875977 9.755496978759766 0 21.78951644897461 0 Z" stroke="none" fill="#707070"/>
          </g>
          <g id="パス_9-6" data-name="パス 9" transform="translate(15.806 1.088)" fill="#007fbd">
            <path d="M 13.86605453491211 27.23211479187012 C 10.29585456848145 27.23211479187012 6.93934440612793 25.84180450439453 4.414824485778809 23.31728363037109 C 1.89031457901001 20.79276466369629 0.5000045299530029 17.43625450134277 0.5000045299530029 13.86605453491211 C 0.5000045299530029 10.29585456848145 1.89031457901001 6.93934440612793 4.414824485778809 4.414824485778809 C 6.93934440612793 1.89031457901001 10.29585456848145 0.5000045299530029 13.86605453491211 0.5000045299530029 C 17.43625450134277 0.5000045299530029 20.79276466369629 1.89031457901001 23.31728363037109 4.414824485778809 C 25.84180450439453 6.93934440612793 27.23211479187012 10.29585456848145 27.23211479187012 13.86605453491211 C 27.23211479187012 17.43625450134277 25.84180450439453 20.79276466369629 23.31728363037109 23.31728363037109 C 20.79276466369629 25.84180450439453 17.43625450134277 27.23211479187012 13.86605453491211 27.23211479187012 Z" stroke="none"/>
            <path d="M 13.86605453491211 0.9999942779541016 C 10.42940521240234 0.9999942779541016 7.198453903198242 2.338294982910156 4.768375396728516 4.768375396728516 C 2.338294982910156 7.198453903198242 0.9999942779541016 10.42940521240234 0.9999942779541016 13.86605453491211 C 0.9999942779541016 17.30270385742188 2.338294982910156 20.53365516662598 4.768375396728516 22.96372413635254 C 7.198453903198242 25.3938045501709 10.42940521240234 26.73210525512695 13.86605453491211 26.73210525512695 C 17.30270385742188 26.73210525512695 20.53365516662598 25.3938045501709 22.96372413635254 22.96372413635254 C 25.3938045501709 20.53365516662598 26.73210525512695 17.30270385742188 26.73210525512695 13.86605453491211 C 26.73210525512695 10.42940521240234 25.3938045501709 7.198453903198242 22.96372413635254 4.768375396728516 C 20.53365516662598 2.338294982910156 17.30270385742188 0.9999942779541016 13.86605453491211 0.9999942779541016 M 13.86605453491211 -5.7220458984375e-06 C 21.5240650177002 -5.7220458984375e-06 27.73210525512695 6.208044052124023 27.73210525512695 13.86605453491211 C 27.73210525512695 21.5240650177002 21.5240650177002 27.73210525512695 13.86605453491211 27.73210525512695 C 6.208044052124023 27.73210525512695 -5.7220458984375e-06 21.5240650177002 -5.7220458984375e-06 13.86605453491211 C -5.7220458984375e-06 6.208044052124023 6.208044052124023 -5.7220458984375e-06 13.86605453491211 -5.7220458984375e-06 Z" stroke="none" fill="#707070"/>
          </g>
        </g>
      </g>
      <text id="STORY-2" data-name="STORY" transform="translate(1052 3000)" fill="#007fbd" font-size="35" font-family="LucidaGrande-Bold, Lucida Grande" font-weight="700"><tspan x="0" y="0">STORY</tspan></text>
    </g>
  </g>
</svg>
