<svg xmlns="http://www.w3.org/2000/svg" width="450" height="450" viewBox="0 0 450 450">
  <g id="グループ_12" data-name="グループ 12" transform="translate(-276 -2888)">
    <g id="長方形_84" data-name="長方形 84" transform="translate(276 2888)" fill="#fff" stroke="#007fbd" stroke-width="7">
      <rect width="450" height="450" stroke="none"/>
      <rect x="3.5" y="3.5" width="443" height="443" fill="none"/>
    </g>
    <g id="グループ_11" data-name="グループ 11" transform="translate(-347 247)">
      <g id="長方形_75" data-name="長方形 75" transform="translate(930 2730)" fill="#007fbd" stroke="#707070" stroke-width="1">
        <rect width="69" height="55" stroke="none"/>
        <rect x="0.5" y="0.5" width="68" height="54" fill="none"/>
      </g>
      <g id="合体_9" data-name="合体 9" transform="translate(753 2792)" fill="#007fbd">
        <path d="M 153.3821411132812 160.4996490478516 L 61.91164779663086 160.4996490478516 L 61.91164779663086 129.9294738769531 L 61.91164779663086 129.4294738769531 L 61.41164779663086 129.4294738769531 L 0.5 129.4294738769531 L 0.5 90.17947387695312 L 127.7645874023438 90.17947387695312 L 128.2645874023438 90.17947387695312 L 128.2645874023438 89.67947387695312 L 128.2645874023438 54.87258911132812 L 176.4703521728516 54.87258911132812 L 176.9703521728516 54.87258911132812 L 176.9703521728516 54.37258911132812 L 176.9703521728516 0.5 L 227.5 0.5 L 227.5 54.37258911132812 L 228.5 54.37294006347656 L 227.5 54.37258911132812 L 227.5 109.3046493530273 L 193.4117279052734 109.3046493530273 L 192.9117279052734 109.3046493530273 L 192.9117279052734 109.8046493530273 L 192.9117279052734 129.4294738769531 L 153.8821411132812 129.4294738769531 L 153.3821411132812 129.4294738769531 L 153.3821411132812 129.9294738769531 L 153.3821411132812 160.4996490478516 Z" stroke="none"/>
        <path d="M 152.8821411132812 159.9996490478516 L 152.8821411132812 129.9294738769531 L 152.8821411132812 128.9294738769531 L 153.8821411132812 128.9294738769531 L 192.4117279052734 128.9294738769531 L 192.4117279052734 109.8046493530273 L 192.4117279052734 108.8046493530273 L 193.4117279052734 108.8046493530273 L 227 108.8046493530273 L 227 54.37258911132812 L 229 54.37294006347656 L 227 54.37258911132812 L 227 1 L 177.4703521728516 1 L 177.4703521728516 54.37258911132812 L 177.4703521728516 55.37258911132812 L 176.4703521728516 55.37258911132812 L 128.7645874023438 55.37258911132812 L 128.7645874023438 89.67947387695312 L 128.7645874023438 90.67947387695312 L 127.7645874023438 90.67947387695312 L 1 90.67947387695312 L 1 128.9294738769531 L 61.41164779663086 128.9294738769531 L 62.41164779663086 128.9294738769531 L 62.41164779663086 129.9294738769531 L 62.41164779663086 159.9996490478516 L 152.8821411132812 159.9996490478516 M 153.8821411132812 161 L 153.8821411132812 160.9996490478516 L 61.41164779663086 160.9996490478516 L 61.41164779663086 129.9294738769531 L 0 129.9294738769531 L 0 89.67947387695312 L 127.7645874023438 89.67947387695312 L 127.7645874023438 54.37258911132812 L 176.4703521728516 54.37258911132812 L 176.4703521728516 0 L 228 0 L 228 54.37258911132812 L 228 54.37294006347656 L 228 54.37258911132812 L 228 109.8046493530273 L 193.4117279052734 109.8046493530273 L 193.4117279052734 129.9294738769531 L 153.8821411132812 129.9294738769531 L 153.8821411132812 160.9996490478516 L 153.8821411132812 161 Z M 193.4117279052734 129.9298248291016 L 193.4117279052734 129.9294738769531 L 193.4117279052734 129.9298248291016 Z M 228 109.8049087524414 L 228 109.8046493530273 L 228 109.8049087524414 Z" stroke="none" fill="#707070"/>
      </g>
      <g id="合体_10" data-name="合体 10" transform="translate(924.955 2882.822)" fill="#24282a">
        <path d="M 74.06996917724609 99.64435577392578 L 45.59654998779297 60.45440292358398 L 45.35500335693359 60.1219367980957 L 44.9820556640625 60.29453659057617 C 40.85054779052734 62.20649337768555 36.42824172973633 63.17593383789062 31.8380012512207 63.17593383789062 C 27.60721588134766 63.17593383789062 23.50324249267578 62.34742736816406 19.64005470275879 60.71341705322266 C 15.90841579437256 59.13505554199219 12.5569486618042 56.87537384033203 9.678749084472656 53.99717712402344 C 6.800548553466797 51.11897659301758 4.540882110595703 47.76749420166016 2.962508678436279 44.03585433959961 C 1.328508734703064 40.17268371582031 0.5000020265579224 36.06869506835938 0.5000020265579224 31.83792114257812 C 0.5000020265579224 27.60714912414551 1.328508734703064 23.50317573547363 2.962508678436279 19.64000129699707 C 4.540882110595703 15.90837574005127 6.800548553466797 12.55690860748291 9.678749084472656 9.678722381591797 C 12.5569486618042 6.800521850585938 15.90841579437256 4.540868759155273 19.64005470275879 2.962508678436279 C 23.50324249267578 1.328508615493774 27.60721588134766 0.5000019669532776 31.8380012512207 0.5000019669532776 C 36.06879043579102 0.5000019669532776 40.17276382446289 1.328508615493774 44.03594970703125 2.962508678436279 C 47.7675895690918 4.540868759155273 51.11905670166016 6.800521850585938 53.99725723266602 9.678722381591797 C 56.87545394897461 12.55690860748291 59.1351203918457 15.90837574005127 60.71349716186523 19.64000129699707 C 62.34749603271484 23.50317573547363 63.17600250244141 27.60714912414551 63.17600250244141 31.83792114257812 C 63.17600250244141 36.16620254516602 62.31025695800781 40.35721588134766 60.60282897949219 44.29452133178711 C 58.95338821411133 48.09808349609375 56.59786987304688 51.49329376220703 53.60168075561523 54.38582992553711 L 53.28893661499023 54.68774795532227 L 53.54445648193359 55.0394401550293 L 81.84668731689453 93.99444580078125 L 74.06996917724609 99.64435577392578 Z" stroke="none"/>
        <path d="M 74.18058776855469 98.94596099853516 L 81.14828491210938 93.88381958007812 L 53.13994979858398 55.33333587646484 L 52.62892150878906 54.62996292114258 L 53.25440216064453 54.02610778808594 C 56.20297622680664 51.17953491210938 58.52100372314453 47.83844375610352 60.14409637451172 44.09560012817383 C 61.82415008544922 40.22144317626953 62.67600250244141 36.09736251831055 62.67600250244141 31.83792114257812 C 62.67600250244141 27.67442893981934 61.86079025268555 23.63598823547363 60.25298690795898 19.83478927612305 C 58.6998291015625 16.16274833679199 56.47615051269531 12.86470890045166 53.64369583129883 10.03226852416992 C 50.81125640869141 7.199841976165771 47.51320266723633 4.976161956787109 43.84116363525391 3.423002004623413 C 40.03994750976562 1.815215229988098 36.00150680541992 1.000001907348633 31.8380012512207 1.000001907348633 C 27.67449569702148 1.000001907348633 23.63604164123535 1.815215229988098 19.83482933044434 3.423002004623413 C 16.16278839111328 4.976161956787109 12.86473560333252 7.199841976165771 10.03229522705078 10.03226852416992 C 7.199855327606201 12.86470890045166 4.976175308227539 16.16274833679199 3.423015356063843 19.83478927612305 C 1.815215349197388 23.63598823547363 1.000002026557922 27.67442893981934 1.000002026557922 31.83792114257812 C 1.000002026557922 36.00141525268555 1.815215349197388 40.03986740112305 3.423015356063843 43.84108352661133 C 4.976175308227539 47.51312255859375 7.199855327606201 50.81117630004883 10.03229522705078 53.64362716674805 C 12.86474895477295 56.47607040405273 16.16278839111328 58.69976043701172 19.83482933044434 60.25292205810547 C 23.63605499267578 61.86071014404297 27.67449569702148 62.67593383789062 31.8380012512207 62.67593383789062 C 36.35520172119141 62.67593383789062 40.70684051513672 61.72204208374023 44.77205657958984 59.84076309204102 L 45.51794815063477 59.49557495117188 L 46.00105667114258 60.16050720214844 L 74.18058776855469 98.94596099853516 M 73.9593505859375 100.3427505493164 L 45.19204330444336 60.74829483032227 C 41.13055038452148 62.62785339355469 36.60734939575195 63.67593383789062 31.8380012512207 63.67593383789062 C 14.25450897216797 63.67593383789062 2.008870524150552e-06 49.42138671875 2.008870524150552e-06 31.83792114257812 C 2.008870524150552e-06 14.25446891784668 14.25450897216797 1.941324853760307e-06 31.8380012512207 1.941324853760307e-06 C 49.42148208618164 1.941324853760307e-06 63.67600250244141 14.25446891784668 63.67600250244141 31.83792114257812 C 63.67600250244141 40.83255004882812 59.94646835327148 48.95550918579102 53.9489631652832 54.74554824829102 L 82.54509735107422 94.10507202148438 L 73.9593505859375 100.3427505493164 Z" stroke="none" fill="#707070"/>
      </g>
      <g id="長方形_81" data-name="長方形 81" transform="translate(753 2928)" fill="#007fbd" stroke="#707070" stroke-width="1">
        <rect width="53" height="26" stroke="none"/>
        <rect x="0.5" y="0.5" width="52" height="25" fill="none"/>
      </g>
      <g id="長方形_82" data-name="長方形 82" transform="translate(689 2883)" fill="#007fbd" stroke="#707070" stroke-width="1">
        <rect width="51" height="89" stroke="none"/>
        <rect x="0.5" y="0.5" width="50" height="88" fill="none"/>
      </g>
      <g id="長方形_83" data-name="長方形 83" transform="translate(689 2982)" fill="#007fbd" stroke="#707070" stroke-width="1">
        <rect width="26" height="20" stroke="none"/>
        <rect x="0.5" y="0.5" width="25" height="19" fill="none"/>
      </g>
      <g id="楕円形_14" data-name="楕円形 14" transform="translate(934 2891)" fill="#fff" stroke="#707070" stroke-width="1">
        <circle cx="23" cy="23" r="23" stroke="none"/>
        <circle cx="23" cy="23" r="22.5" fill="none"/>
      </g>
    </g>
  </g>
</svg>
