<svg xmlns="http://www.w3.org/2000/svg" xmlns:xlink="http://www.w3.org/1999/xlink" width="450" height="450" viewBox="0 0 450 450">
  <defs>
    <clipPath id="clip-path">
      <ellipse id="楕円形_15" data-name="楕円形 15" cx="30" cy="29.5" rx="30" ry="29.5" fill="#d22" stroke="#707070" stroke-width="1"/>
    </clipPath>
  </defs>
  <g id="グループ_27" data-name="グループ 27" transform="translate(-54 -2698)">
    <g id="グループ_22" data-name="グループ 22" transform="translate(-1138 -943)">
      <g id="長方形_85" data-name="長方形 85" transform="translate(1192 3641)" fill="#fff" stroke="#007fbd" stroke-width="7">
        <rect width="450" height="450" stroke="none"/>
        <rect x="3.5" y="3.5" width="443" height="443" fill="none"/>
      </g>
      <g id="長方形_97" data-name="長方形 97" transform="translate(1229 3680)" fill="#fff" stroke="#007fbd" stroke-width="4">
        <rect width="370" height="114" stroke="none"/>
        <rect x="2" y="2" width="366" height="110" fill="none"/>
      </g>
      <g id="グループ_24" data-name="グループ 24" transform="translate(1244.167 3702.226)">
        <g id="パス_11" data-name="パス 11" fill="#fff">
          <path d="M 34.28420257568359 67.06840515136719 C 29.85770225524902 67.06840515136719 25.56440162658691 66.20180511474609 21.52357292175293 64.49267578125 C 17.61983299255371 62.84153366088867 14.11360263824463 60.47746276855469 11.10227298736572 57.46613311767578 C 8.0909423828125 54.45480346679688 5.726872444152832 50.94857406616211 4.075732707977295 47.04483413696289 C 2.366602659225464 43.00400161743164 1.50000262260437 38.71070098876953 1.50000262260437 34.28420257568359 C 1.50000262260437 28.66722297668457 2.888132572174072 23.30606269836426 5.6258225440979 18.34966278076172 C 8.386902809143066 13.35024261474609 12.45446300506592 9.139922142028809 17.38881301879883 6.173812389373779 C 22.47540283203125 3.116182565689087 28.3177433013916 1.50000262260437 34.28420257568359 1.50000262260437 C 38.71070098876953 1.50000262260437 43.00400161743164 2.366602659225464 47.04483413696289 4.075732707977295 C 50.94857406616211 5.726872444152832 54.45480346679688 8.0909423828125 57.46613311767578 11.10227298736572 C 60.47746276855469 14.11360263824463 62.84153366088867 17.61983299255371 64.49267578125 21.52357292175293 C 66.20180511474609 25.56440162658691 67.06840515136719 29.85770225524902 67.06840515136719 34.28420257568359 C 67.06840515136719 38.71070098876953 66.20180511474609 43.00400161743164 64.49267578125 47.04483413696289 C 62.84153366088867 50.94857406616211 60.47746276855469 54.45480346679688 57.46613311767578 57.46613311767578 C 54.45480346679688 60.47746276855469 50.94857406616211 62.84153366088867 47.04483413696289 64.49267578125 C 43.00400161743164 66.20180511474609 38.71070098876953 67.06840515136719 34.28420257568359 67.06840515136719 Z" stroke="none"/>
          <path d="M 34.28420257568359 3 C 28.5899772644043 3 23.01487350463867 4.54205322265625 18.16160202026367 7.459426879882812 C 13.45323944091797 10.28969573974609 9.572498321533203 14.30621337890625 6.938838958740234 19.07492065429688 C 4.325210571289062 23.80668640136719 3 28.92382431030273 3 34.28420257568359 C 3 38.50886154174805 3.826728820800781 42.60556793212891 5.457237243652344 46.46051025390625 C 7.032756805419922 50.18544769287109 9.288871765136719 53.53142547607422 12.16293334960938 56.40547180175781 C 15.03697967529297 59.27953338623047 18.38295364379883 61.53564834594727 22.10789489746094 63.11116790771484 C 25.96283721923828 64.74167633056641 30.05954360961914 65.56840515136719 34.28420257568359 65.56840515136719 C 38.50886154174805 65.56840515136719 42.60556793212891 64.74167633056641 46.46051025390625 63.11116790771484 C 50.18544769287109 61.53564834594727 53.53142547607422 59.27953338623047 56.40547180175781 56.40547180175781 C 59.27953338623047 53.53142547607422 61.53564834594727 50.18544769287109 63.11116790771484 46.46051025390625 C 64.74167633056641 42.60556793212891 65.56840515136719 38.50886154174805 65.56840515136719 34.28420257568359 C 65.56840515136719 30.05954360961914 64.74167633056641 25.96283721923828 63.11116790771484 22.10789489746094 C 61.53564834594727 18.38295364379883 59.27953338623047 15.03697967529297 56.40547180175781 12.16293334960938 C 53.53142547607422 9.288871765136719 50.18544769287109 7.032756805419922 46.46051025390625 5.457237243652344 C 42.60556793212891 3.826728820800781 38.50886154174805 3 34.28420257568359 3 M 34.28420257568359 0 C 53.21884918212891 0 68.56840515136719 15.34955596923828 68.56840515136719 34.28420257568359 C 68.56840515136719 53.21884918212891 53.21884918212891 68.56840515136719 34.28420257568359 68.56840515136719 C 15.34955596923828 68.56840515136719 0 53.21884918212891 0 34.28420257568359 C 0 28.28193283081055 1.542465209960938 22.63991928100586 4.31280517578125 17.62441253662109 C 10.09186172485352 7.160415649414062 21.35182571411133 0 34.28420257568359 0 Z" stroke="none" fill="#007fbd"/>
        </g>
        <g id="マスクグループ_1" data-name="マスクグループ 1" transform="translate(3.833 6.774)" clip-path="url(#clip-path)">
          <g id="パス_10" data-name="パス 10" transform="translate(8.265 32.112)" fill="#007fbd">
            <path d="M 21.78951644897461 53.77569961547852 C 18.92999649047852 53.77569961547852 16.15481567382812 53.07756805419922 13.54108619689941 51.70069885253906 C 11.00735664367676 50.36597061157227 8.729856491088867 48.45275115966797 6.771876335144043 46.0141716003418 C 4.807396411895752 43.56750106811523 3.264406442642212 40.71649169921875 2.185766458511353 37.54034042358398 C 1.067176461219788 34.24654006958008 0.4999964535236359 30.74663925170898 0.4999964535236359 27.13784980773926 C 0.4999964535236359 23.52906036376953 1.067176461219788 20.02915954589844 2.185766458511353 16.73535919189453 C 3.264406442642212 13.5592098236084 4.807396411895752 10.7081995010376 6.771876335144043 8.261529922485352 C 8.729856491088867 5.822949886322021 11.00735664367676 3.909729719161987 13.54108619689941 2.574999809265137 C 16.15481567382812 1.198129773139954 18.92999649047852 0.4999998211860657 21.78951644897461 0.4999998211860657 C 24.6490364074707 0.4999998211860657 27.4242057800293 1.198129773139954 30.0379467010498 2.574999809265137 C 32.57167816162109 3.909729719161987 34.84916687011719 5.822949886322021 36.80715560913086 8.261529922485352 C 38.77162551879883 10.7081995010376 40.31461715698242 13.5592098236084 41.39326477050781 16.73535919189453 C 42.51185607910156 20.02915954589844 43.07903671264648 23.52906036376953 43.07903671264648 27.13784980773926 C 43.07903671264648 30.74663925170898 42.51185607910156 34.24654006958008 41.39326477050781 37.54034042358398 C 40.31461715698242 40.71649169921875 38.77162551879883 43.56750106811523 36.80715560913086 46.0141716003418 C 34.84916687011719 48.45275115966797 32.57167816162109 50.36597061157227 30.0379467010498 51.70069885253906 C 27.4242057800293 53.07756805419922 24.6490364074707 53.77569961547852 21.78951644897461 53.77569961547852 Z" stroke="none"/>
            <path d="M 21.78951644897461 1 C 10.32613754272461 1 0.9999961853027344 12.72539138793945 0.9999961853027344 27.13784980773926 C 0.9999961853027344 41.55030822753906 10.32613754272461 53.27569961547852 21.78951644897461 53.27569961547852 C 33.25289535522461 53.27569961547852 42.57903671264648 41.55030822753906 42.57903671264648 27.13784980773926 C 42.57903671264648 12.72539138793945 33.25289535522461 1 21.78951644897461 1 M 21.78951644897461 0 C 33.82352447509766 0 43.57903671264648 12.15002822875977 43.57903671264648 27.13784980773926 C 43.57903671264648 42.12567138671875 33.82352447509766 54.27569961547852 21.78951644897461 54.27569961547852 C 9.755496978759766 54.27569961547852 -3.814697265625e-06 42.12567138671875 -3.814697265625e-06 27.13784980773926 C -3.814697265625e-06 12.15002822875977 9.755496978759766 0 21.78951644897461 0 Z" stroke="none" fill="#707070"/>
          </g>
          <g id="パス_9" data-name="パス 9" transform="translate(16.188 0.814)" fill="#007fbd">
            <path d="M 13.86605453491211 27.23211479187012 C 10.29585456848145 27.23211479187012 6.93934440612793 25.84180450439453 4.414824485778809 23.31728363037109 C 1.89031457901001 20.79276466369629 0.5000045299530029 17.43625450134277 0.5000045299530029 13.86605453491211 C 0.5000045299530029 10.29585456848145 1.89031457901001 6.93934440612793 4.414824485778809 4.414824485778809 C 6.93934440612793 1.89031457901001 10.29585456848145 0.5000045299530029 13.86605453491211 0.5000045299530029 C 17.43625450134277 0.5000045299530029 20.79276466369629 1.89031457901001 23.31728363037109 4.414824485778809 C 25.84180450439453 6.93934440612793 27.23211479187012 10.29585456848145 27.23211479187012 13.86605453491211 C 27.23211479187012 17.43625450134277 25.84180450439453 20.79276466369629 23.31728363037109 23.31728363037109 C 20.79276466369629 25.84180450439453 17.43625450134277 27.23211479187012 13.86605453491211 27.23211479187012 Z" stroke="none"/>
            <path d="M 13.86605453491211 0.9999942779541016 C 10.42940521240234 0.9999942779541016 7.198453903198242 2.338294982910156 4.768375396728516 4.768375396728516 C 2.338294982910156 7.198453903198242 0.9999942779541016 10.42940521240234 0.9999942779541016 13.86605453491211 C 0.9999942779541016 17.30270385742188 2.338294982910156 20.53365516662598 4.768375396728516 22.96372413635254 C 7.198453903198242 25.3938045501709 10.42940521240234 26.73210525512695 13.86605453491211 26.73210525512695 C 17.30270385742188 26.73210525512695 20.53365516662598 25.3938045501709 22.96372413635254 22.96372413635254 C 25.3938045501709 20.53365516662598 26.73210525512695 17.30270385742188 26.73210525512695 13.86605453491211 C 26.73210525512695 10.42940521240234 25.3938045501709 7.198453903198242 22.96372413635254 4.768375396728516 C 20.53365516662598 2.338294982910156 17.30270385742188 0.9999942779541016 13.86605453491211 0.9999942779541016 M 13.86605453491211 -5.7220458984375e-06 C 21.5240650177002 -5.7220458984375e-06 27.73210525512695 6.208044052124023 27.73210525512695 13.86605453491211 C 27.73210525512695 21.5240650177002 21.5240650177002 27.73210525512695 13.86605453491211 27.73210525512695 C 6.208044052124023 27.73210525512695 -5.7220458984375e-06 21.5240650177002 -5.7220458984375e-06 13.86605453491211 C -5.7220458984375e-06 6.208044052124023 6.208044052124023 -5.7220458984375e-06 13.86605453491211 -5.7220458984375e-06 Z" stroke="none" fill="#707070"/>
          </g>
        </g>
      </g>
      <text id="Taro_Yamada" data-name="Taro Yamada" transform="translate(1330 3747)" fill="#007fbd" font-size="35" font-family="LucidaGrande-Bold, Lucida Grande" font-weight="700"><tspan x="0" y="0">Taro</tspan><tspan y="0" font-family="NotoSansOriya-Bold, Noto Sans Oriya"> </tspan><tspan y="0">Yamada</tspan></text>
      <g id="長方形_98" data-name="長方形 98" transform="translate(1229 3809)" fill="#fff" stroke="#007fbd" stroke-width="4">
        <rect width="370" height="114" stroke="none"/>
        <rect x="2" y="2" width="366" height="110" fill="none"/>
      </g>
      <g id="グループ_25" data-name="グループ 25" transform="translate(1244.167 3831.226)">
        <g id="パス_11-2" data-name="パス 11" fill="#fff">
          <path d="M 34.28420257568359 67.06840515136719 C 29.85770225524902 67.06840515136719 25.56440162658691 66.20180511474609 21.52357292175293 64.49267578125 C 17.61983299255371 62.84153366088867 14.11360263824463 60.47746276855469 11.10227298736572 57.46613311767578 C 8.0909423828125 54.45480346679688 5.726872444152832 50.94857406616211 4.075732707977295 47.04483413696289 C 2.366602659225464 43.00400161743164 1.50000262260437 38.71070098876953 1.50000262260437 34.28420257568359 C 1.50000262260437 28.66722297668457 2.888132572174072 23.30606269836426 5.6258225440979 18.34966278076172 C 8.386902809143066 13.35024261474609 12.45446300506592 9.139922142028809 17.38881301879883 6.173812389373779 C 22.47540283203125 3.116182565689087 28.3177433013916 1.50000262260437 34.28420257568359 1.50000262260437 C 38.71070098876953 1.50000262260437 43.00400161743164 2.366602659225464 47.04483413696289 4.075732707977295 C 50.94857406616211 5.726872444152832 54.45480346679688 8.0909423828125 57.46613311767578 11.10227298736572 C 60.47746276855469 14.11360263824463 62.84153366088867 17.61983299255371 64.49267578125 21.52357292175293 C 66.20180511474609 25.56440162658691 67.06840515136719 29.85770225524902 67.06840515136719 34.28420257568359 C 67.06840515136719 38.71070098876953 66.20180511474609 43.00400161743164 64.49267578125 47.04483413696289 C 62.84153366088867 50.94857406616211 60.47746276855469 54.45480346679688 57.46613311767578 57.46613311767578 C 54.45480346679688 60.47746276855469 50.94857406616211 62.84153366088867 47.04483413696289 64.49267578125 C 43.00400161743164 66.20180511474609 38.71070098876953 67.06840515136719 34.28420257568359 67.06840515136719 Z" stroke="none"/>
          <path d="M 34.28420257568359 3 C 28.5899772644043 3 23.01487350463867 4.54205322265625 18.16160202026367 7.459426879882812 C 13.45323944091797 10.28969573974609 9.572498321533203 14.30621337890625 6.938838958740234 19.07492065429688 C 4.325210571289062 23.80668640136719 3 28.92382431030273 3 34.28420257568359 C 3 38.50886154174805 3.826728820800781 42.60556793212891 5.457237243652344 46.46051025390625 C 7.032756805419922 50.18544769287109 9.288871765136719 53.53142547607422 12.16293334960938 56.40547180175781 C 15.03697967529297 59.27953338623047 18.38295364379883 61.53564834594727 22.10789489746094 63.11116790771484 C 25.96283721923828 64.74167633056641 30.05954360961914 65.56840515136719 34.28420257568359 65.56840515136719 C 38.50886154174805 65.56840515136719 42.60556793212891 64.74167633056641 46.46051025390625 63.11116790771484 C 50.18544769287109 61.53564834594727 53.53142547607422 59.27953338623047 56.40547180175781 56.40547180175781 C 59.27953338623047 53.53142547607422 61.53564834594727 50.18544769287109 63.11116790771484 46.46051025390625 C 64.74167633056641 42.60556793212891 65.56840515136719 38.50886154174805 65.56840515136719 34.28420257568359 C 65.56840515136719 30.05954360961914 64.74167633056641 25.96283721923828 63.11116790771484 22.10789489746094 C 61.53564834594727 18.38295364379883 59.27953338623047 15.03697967529297 56.40547180175781 12.16293334960938 C 53.53142547607422 9.288871765136719 50.18544769287109 7.032756805419922 46.46051025390625 5.457237243652344 C 42.60556793212891 3.826728820800781 38.50886154174805 3 34.28420257568359 3 M 34.28420257568359 0 C 53.21884918212891 0 68.56840515136719 15.34955596923828 68.56840515136719 34.28420257568359 C 68.56840515136719 53.21884918212891 53.21884918212891 68.56840515136719 34.28420257568359 68.56840515136719 C 15.34955596923828 68.56840515136719 0 53.21884918212891 0 34.28420257568359 C 0 28.28193283081055 1.542465209960938 22.63991928100586 4.31280517578125 17.62441253662109 C 10.09186172485352 7.160415649414062 21.35182571411133 0 34.28420257568359 0 Z" stroke="none" fill="#007fbd"/>
        </g>
        <g id="マスクグループ_1-2" data-name="マスクグループ 1" transform="translate(3.833 6.774)" clip-path="url(#clip-path)">
          <g id="パス_10-2" data-name="パス 10" transform="translate(8.265 32.112)" fill="#007fbd">
            <path d="M 21.78951644897461 53.77569961547852 C 18.92999649047852 53.77569961547852 16.15481567382812 53.07756805419922 13.54108619689941 51.70069885253906 C 11.00735664367676 50.36597061157227 8.729856491088867 48.45275115966797 6.771876335144043 46.0141716003418 C 4.807396411895752 43.56750106811523 3.264406442642212 40.71649169921875 2.185766458511353 37.54034042358398 C 1.067176461219788 34.24654006958008 0.4999964535236359 30.74663925170898 0.4999964535236359 27.13784980773926 C 0.4999964535236359 23.52906036376953 1.067176461219788 20.02915954589844 2.185766458511353 16.73535919189453 C 3.264406442642212 13.5592098236084 4.807396411895752 10.7081995010376 6.771876335144043 8.261529922485352 C 8.729856491088867 5.822949886322021 11.00735664367676 3.909729719161987 13.54108619689941 2.574999809265137 C 16.15481567382812 1.198129773139954 18.92999649047852 0.4999998211860657 21.78951644897461 0.4999998211860657 C 24.6490364074707 0.4999998211860657 27.4242057800293 1.198129773139954 30.0379467010498 2.574999809265137 C 32.57167816162109 3.909729719161987 34.84916687011719 5.822949886322021 36.80715560913086 8.261529922485352 C 38.77162551879883 10.7081995010376 40.31461715698242 13.5592098236084 41.39326477050781 16.73535919189453 C 42.51185607910156 20.02915954589844 43.07903671264648 23.52906036376953 43.07903671264648 27.13784980773926 C 43.07903671264648 30.74663925170898 42.51185607910156 34.24654006958008 41.39326477050781 37.54034042358398 C 40.31461715698242 40.71649169921875 38.77162551879883 43.56750106811523 36.80715560913086 46.0141716003418 C 34.84916687011719 48.45275115966797 32.57167816162109 50.36597061157227 30.0379467010498 51.70069885253906 C 27.4242057800293 53.07756805419922 24.6490364074707 53.77569961547852 21.78951644897461 53.77569961547852 Z" stroke="none"/>
            <path d="M 21.78951644897461 1 C 10.32613754272461 1 0.9999961853027344 12.72539138793945 0.9999961853027344 27.13784980773926 C 0.9999961853027344 41.55030822753906 10.32613754272461 53.27569961547852 21.78951644897461 53.27569961547852 C 33.25289535522461 53.27569961547852 42.57903671264648 41.55030822753906 42.57903671264648 27.13784980773926 C 42.57903671264648 12.72539138793945 33.25289535522461 1 21.78951644897461 1 M 21.78951644897461 0 C 33.82352447509766 0 43.57903671264648 12.15002822875977 43.57903671264648 27.13784980773926 C 43.57903671264648 42.12567138671875 33.82352447509766 54.27569961547852 21.78951644897461 54.27569961547852 C 9.755496978759766 54.27569961547852 -3.814697265625e-06 42.12567138671875 -3.814697265625e-06 27.13784980773926 C -3.814697265625e-06 12.15002822875977 9.755496978759766 0 21.78951644897461 0 Z" stroke="none" fill="#707070"/>
          </g>
          <g id="パス_9-2" data-name="パス 9" transform="translate(16.188 0.814)" fill="#007fbd">
            <path d="M 13.86605453491211 27.23211479187012 C 10.29585456848145 27.23211479187012 6.93934440612793 25.84180450439453 4.414824485778809 23.31728363037109 C 1.89031457901001 20.79276466369629 0.5000045299530029 17.43625450134277 0.5000045299530029 13.86605453491211 C 0.5000045299530029 10.29585456848145 1.89031457901001 6.93934440612793 4.414824485778809 4.414824485778809 C 6.93934440612793 1.89031457901001 10.29585456848145 0.5000045299530029 13.86605453491211 0.5000045299530029 C 17.43625450134277 0.5000045299530029 20.79276466369629 1.89031457901001 23.31728363037109 4.414824485778809 C 25.84180450439453 6.93934440612793 27.23211479187012 10.29585456848145 27.23211479187012 13.86605453491211 C 27.23211479187012 17.43625450134277 25.84180450439453 20.79276466369629 23.31728363037109 23.31728363037109 C 20.79276466369629 25.84180450439453 17.43625450134277 27.23211479187012 13.86605453491211 27.23211479187012 Z" stroke="none"/>
            <path d="M 13.86605453491211 0.9999942779541016 C 10.42940521240234 0.9999942779541016 7.198453903198242 2.338294982910156 4.768375396728516 4.768375396728516 C 2.338294982910156 7.198453903198242 0.9999942779541016 10.42940521240234 0.9999942779541016 13.86605453491211 C 0.9999942779541016 17.30270385742188 2.338294982910156 20.53365516662598 4.768375396728516 22.96372413635254 C 7.198453903198242 25.3938045501709 10.42940521240234 26.73210525512695 13.86605453491211 26.73210525512695 C 17.30270385742188 26.73210525512695 20.53365516662598 25.3938045501709 22.96372413635254 22.96372413635254 C 25.3938045501709 20.53365516662598 26.73210525512695 17.30270385742188 26.73210525512695 13.86605453491211 C 26.73210525512695 10.42940521240234 25.3938045501709 7.198453903198242 22.96372413635254 4.768375396728516 C 20.53365516662598 2.338294982910156 17.30270385742188 0.9999942779541016 13.86605453491211 0.9999942779541016 M 13.86605453491211 -5.7220458984375e-06 C 21.5240650177002 -5.7220458984375e-06 27.73210525512695 6.208044052124023 27.73210525512695 13.86605453491211 C 27.73210525512695 21.5240650177002 21.5240650177002 27.73210525512695 13.86605453491211 27.73210525512695 C 6.208044052124023 27.73210525512695 -5.7220458984375e-06 21.5240650177002 -5.7220458984375e-06 13.86605453491211 C -5.7220458984375e-06 6.208044052124023 6.208044052124023 -5.7220458984375e-06 13.86605453491211 -5.7220458984375e-06 Z" stroke="none" fill="#707070"/>
          </g>
        </g>
      </g>
      <text id="Emiko_Oda" data-name="Emiko Oda" transform="translate(1330 3876)" fill="#007fbd" font-size="35" font-family="LucidaGrande-Bold, Lucida Grande" font-weight="700"><tspan x="0" y="0">Emiko</tspan><tspan y="0" font-family="NotoSansOriya-Bold, Noto Sans Oriya"> </tspan><tspan y="0">Oda</tspan></text>
      <g id="長方形_99" data-name="長方形 99" transform="translate(1229 3938)" fill="#fff" stroke="#007fbd" stroke-width="4">
        <rect width="370" height="114" stroke="none"/>
        <rect x="2" y="2" width="366" height="110" fill="none"/>
      </g>
      <g id="グループ_26" data-name="グループ 26" transform="translate(1244.167 3960.226)">
        <g id="パス_11-3" data-name="パス 11" fill="#fff">
          <path d="M 34.28420257568359 67.06840515136719 C 29.85770225524902 67.06840515136719 25.56440162658691 66.20180511474609 21.52357292175293 64.49267578125 C 17.61983299255371 62.84153366088867 14.11360263824463 60.47746276855469 11.10227298736572 57.46613311767578 C 8.0909423828125 54.45480346679688 5.726872444152832 50.94857406616211 4.075732707977295 47.04483413696289 C 2.366602659225464 43.00400161743164 1.50000262260437 38.71070098876953 1.50000262260437 34.28420257568359 C 1.50000262260437 28.66722297668457 2.888132572174072 23.30606269836426 5.6258225440979 18.34966278076172 C 8.386902809143066 13.35024261474609 12.45446300506592 9.139922142028809 17.38881301879883 6.173812389373779 C 22.47540283203125 3.116182565689087 28.3177433013916 1.50000262260437 34.28420257568359 1.50000262260437 C 38.71070098876953 1.50000262260437 43.00400161743164 2.366602659225464 47.04483413696289 4.075732707977295 C 50.94857406616211 5.726872444152832 54.45480346679688 8.0909423828125 57.46613311767578 11.10227298736572 C 60.47746276855469 14.11360263824463 62.84153366088867 17.61983299255371 64.49267578125 21.52357292175293 C 66.20180511474609 25.56440162658691 67.06840515136719 29.85770225524902 67.06840515136719 34.28420257568359 C 67.06840515136719 38.71070098876953 66.20180511474609 43.00400161743164 64.49267578125 47.04483413696289 C 62.84153366088867 50.94857406616211 60.47746276855469 54.45480346679688 57.46613311767578 57.46613311767578 C 54.45480346679688 60.47746276855469 50.94857406616211 62.84153366088867 47.04483413696289 64.49267578125 C 43.00400161743164 66.20180511474609 38.71070098876953 67.06840515136719 34.28420257568359 67.06840515136719 Z" stroke="none"/>
          <path d="M 34.28420257568359 3 C 28.5899772644043 3 23.01487350463867 4.54205322265625 18.16160202026367 7.459426879882812 C 13.45323944091797 10.28969573974609 9.572498321533203 14.30621337890625 6.938838958740234 19.07492065429688 C 4.325210571289062 23.80668640136719 3 28.92382431030273 3 34.28420257568359 C 3 38.50886154174805 3.826728820800781 42.60556793212891 5.457237243652344 46.46051025390625 C 7.032756805419922 50.18544769287109 9.288871765136719 53.53142547607422 12.16293334960938 56.40547180175781 C 15.03697967529297 59.27953338623047 18.38295364379883 61.53564834594727 22.10789489746094 63.11116790771484 C 25.96283721923828 64.74167633056641 30.05954360961914 65.56840515136719 34.28420257568359 65.56840515136719 C 38.50886154174805 65.56840515136719 42.60556793212891 64.74167633056641 46.46051025390625 63.11116790771484 C 50.18544769287109 61.53564834594727 53.53142547607422 59.27953338623047 56.40547180175781 56.40547180175781 C 59.27953338623047 53.53142547607422 61.53564834594727 50.18544769287109 63.11116790771484 46.46051025390625 C 64.74167633056641 42.60556793212891 65.56840515136719 38.50886154174805 65.56840515136719 34.28420257568359 C 65.56840515136719 30.05954360961914 64.74167633056641 25.96283721923828 63.11116790771484 22.10789489746094 C 61.53564834594727 18.38295364379883 59.27953338623047 15.03697967529297 56.40547180175781 12.16293334960938 C 53.53142547607422 9.288871765136719 50.18544769287109 7.032756805419922 46.46051025390625 5.457237243652344 C 42.60556793212891 3.826728820800781 38.50886154174805 3 34.28420257568359 3 M 34.28420257568359 0 C 53.21884918212891 0 68.56840515136719 15.34955596923828 68.56840515136719 34.28420257568359 C 68.56840515136719 53.21884918212891 53.21884918212891 68.56840515136719 34.28420257568359 68.56840515136719 C 15.34955596923828 68.56840515136719 0 53.21884918212891 0 34.28420257568359 C 0 28.28193283081055 1.542465209960938 22.63991928100586 4.31280517578125 17.62441253662109 C 10.09186172485352 7.160415649414062 21.35182571411133 0 34.28420257568359 0 Z" stroke="none" fill="#007fbd"/>
        </g>
        <g id="マスクグループ_1-3" data-name="マスクグループ 1" transform="translate(3.833 6.774)" clip-path="url(#clip-path)">
          <g id="パス_10-3" data-name="パス 10" transform="translate(8.265 32.112)" fill="#007fbd">
            <path d="M 21.78951644897461 53.77569961547852 C 18.92999649047852 53.77569961547852 16.15481567382812 53.07756805419922 13.54108619689941 51.70069885253906 C 11.00735664367676 50.36597061157227 8.729856491088867 48.45275115966797 6.771876335144043 46.0141716003418 C 4.807396411895752 43.56750106811523 3.264406442642212 40.71649169921875 2.185766458511353 37.54034042358398 C 1.067176461219788 34.24654006958008 0.4999964535236359 30.74663925170898 0.4999964535236359 27.13784980773926 C 0.4999964535236359 23.52906036376953 1.067176461219788 20.02915954589844 2.185766458511353 16.73535919189453 C 3.264406442642212 13.5592098236084 4.807396411895752 10.7081995010376 6.771876335144043 8.261529922485352 C 8.729856491088867 5.822949886322021 11.00735664367676 3.909729719161987 13.54108619689941 2.574999809265137 C 16.15481567382812 1.198129773139954 18.92999649047852 0.4999998211860657 21.78951644897461 0.4999998211860657 C 24.6490364074707 0.4999998211860657 27.4242057800293 1.198129773139954 30.0379467010498 2.574999809265137 C 32.57167816162109 3.909729719161987 34.84916687011719 5.822949886322021 36.80715560913086 8.261529922485352 C 38.77162551879883 10.7081995010376 40.31461715698242 13.5592098236084 41.39326477050781 16.73535919189453 C 42.51185607910156 20.02915954589844 43.07903671264648 23.52906036376953 43.07903671264648 27.13784980773926 C 43.07903671264648 30.74663925170898 42.51185607910156 34.24654006958008 41.39326477050781 37.54034042358398 C 40.31461715698242 40.71649169921875 38.77162551879883 43.56750106811523 36.80715560913086 46.0141716003418 C 34.84916687011719 48.45275115966797 32.57167816162109 50.36597061157227 30.0379467010498 51.70069885253906 C 27.4242057800293 53.07756805419922 24.6490364074707 53.77569961547852 21.78951644897461 53.77569961547852 Z" stroke="none"/>
            <path d="M 21.78951644897461 1 C 10.32613754272461 1 0.9999961853027344 12.72539138793945 0.9999961853027344 27.13784980773926 C 0.9999961853027344 41.55030822753906 10.32613754272461 53.27569961547852 21.78951644897461 53.27569961547852 C 33.25289535522461 53.27569961547852 42.57903671264648 41.55030822753906 42.57903671264648 27.13784980773926 C 42.57903671264648 12.72539138793945 33.25289535522461 1 21.78951644897461 1 M 21.78951644897461 0 C 33.82352447509766 0 43.57903671264648 12.15002822875977 43.57903671264648 27.13784980773926 C 43.57903671264648 42.12567138671875 33.82352447509766 54.27569961547852 21.78951644897461 54.27569961547852 C 9.755496978759766 54.27569961547852 -3.814697265625e-06 42.12567138671875 -3.814697265625e-06 27.13784980773926 C -3.814697265625e-06 12.15002822875977 9.755496978759766 0 21.78951644897461 0 Z" stroke="none" fill="#707070"/>
          </g>
          <g id="パス_9-3" data-name="パス 9" transform="translate(16.188 0.814)" fill="#007fbd">
            <path d="M 13.86605453491211 27.23211479187012 C 10.29585456848145 27.23211479187012 6.93934440612793 25.84180450439453 4.414824485778809 23.31728363037109 C 1.89031457901001 20.79276466369629 0.5000045299530029 17.43625450134277 0.5000045299530029 13.86605453491211 C 0.5000045299530029 10.29585456848145 1.89031457901001 6.93934440612793 4.414824485778809 4.414824485778809 C 6.93934440612793 1.89031457901001 10.29585456848145 0.5000045299530029 13.86605453491211 0.5000045299530029 C 17.43625450134277 0.5000045299530029 20.79276466369629 1.89031457901001 23.31728363037109 4.414824485778809 C 25.84180450439453 6.93934440612793 27.23211479187012 10.29585456848145 27.23211479187012 13.86605453491211 C 27.23211479187012 17.43625450134277 25.84180450439453 20.79276466369629 23.31728363037109 23.31728363037109 C 20.79276466369629 25.84180450439453 17.43625450134277 27.23211479187012 13.86605453491211 27.23211479187012 Z" stroke="none"/>
            <path d="M 13.86605453491211 0.9999942779541016 C 10.42940521240234 0.9999942779541016 7.198453903198242 2.338294982910156 4.768375396728516 4.768375396728516 C 2.338294982910156 7.198453903198242 0.9999942779541016 10.42940521240234 0.9999942779541016 13.86605453491211 C 0.9999942779541016 17.30270385742188 2.338294982910156 20.53365516662598 4.768375396728516 22.96372413635254 C 7.198453903198242 25.3938045501709 10.42940521240234 26.73210525512695 13.86605453491211 26.73210525512695 C 17.30270385742188 26.73210525512695 20.53365516662598 25.3938045501709 22.96372413635254 22.96372413635254 C 25.3938045501709 20.53365516662598 26.73210525512695 17.30270385742188 26.73210525512695 13.86605453491211 C 26.73210525512695 10.42940521240234 25.3938045501709 7.198453903198242 22.96372413635254 4.768375396728516 C 20.53365516662598 2.338294982910156 17.30270385742188 0.9999942779541016 13.86605453491211 0.9999942779541016 M 13.86605453491211 -5.7220458984375e-06 C 21.5240650177002 -5.7220458984375e-06 27.73210525512695 6.208044052124023 27.73210525512695 13.86605453491211 C 27.73210525512695 21.5240650177002 21.5240650177002 27.73210525512695 13.86605453491211 27.73210525512695 C 6.208044052124023 27.73210525512695 -5.7220458984375e-06 21.5240650177002 -5.7220458984375e-06 13.86605453491211 C -5.7220458984375e-06 6.208044052124023 6.208044052124023 -5.7220458984375e-06 13.86605453491211 -5.7220458984375e-06 Z" stroke="none" fill="#707070"/>
          </g>
        </g>
      </g>
      <text id="Mao_Suzuki" data-name="Mao Suzuki" transform="translate(1330 4005)" fill="#007fbd" font-size="35" font-family="LucidaGrande-Bold, Lucida Grande" font-weight="700"><tspan x="0" y="0">Mao</tspan><tspan y="0" font-family="NotoSansOriya-Bold, Noto Sans Oriya"> </tspan><tspan y="0">Suzuki</tspan></text>
    </g>
  </g>
</svg>
